<?xml version="1.0" encoding="utf-8"?>
<!-- Generator: Adobe Illustrator 27.5.0, SVG Export Plug-In . SVG Version: 6.00 Build 0)  -->
<svg version="1.1" xmlns="http://www.w3.org/2000/svg" xmlns:xlink="http://www.w3.org/1999/xlink" x="0px" y="0px"
	 viewBox="0 0 750 500" style="enable-background:new 0 0 750 500;" xml:space="preserve">
<g id="BACKGROUND">
	<rect style="fill:#E0E6F6;" width="750" height="500"/>
</g>
<g id="OBJECTS">
	<g>
		<g>
			<path style="fill:#2A75F4;" d="M643.183,242.214c-0.251-15.679,0.786-31.173-1.829-46.085c-0.673-3.837-1.505-7.908-3.604-11.51
				c-2.891-4.963-21.639-12.64-27.233-14.041l-11.691,0.305c-3.104,0.521-7.335,2.242-11.626,4.73
				c-8.591,4.982-17.904,9.242-17.904,20.677c0,4.216-0.447,9.452-0.482,14.85c-0.091,14.068,12.183,31.073,12.183,31.073"/>
		</g>
		<path style="fill:none;" d="M597.262,171.031c-0.073,1.951,1.367,3.591,2.715,5.002c1.018,1.066,2.163,2.197,3.628,2.353
			c1.323,0.141,2.577-0.553,3.721-1.233c1.518-0.901,3.045-1.834,4.264-3.111c0.527-0.552,1.002-1.184,1.211-1.918
			c0.209-0.734,0.114-1.589-0.392-2.161"/>
		<polyline style="fill:#FFFFFF;" points="596.905,173.1 596.613,170.933 594.046,172.276 598.796,190.941 613.567,171.542 
			611.903,170.933 611.261,172.238 		"/>
		<path style="fill:#101929;" d="M596.554,140.775c2.072-1.757,6.327-2.379,9.193-1.578c2.54,0.71,4.601,2.653,5.898,4.95
			c1.004,1.778,1.233,3.892,1.233,6.19c0,0-0.481-0.091-0.838-0.1c-0.208-0.005-0.833-0.009-0.833-0.009l-6.896-7.943
			L596.554,140.775z"/>
		<path style="fill:#101929;" d="M606.467,139.616c-2.762-0.764-5.384-1.988-8.093-1.236c-2.709,0.752-4.258,2.706-5.495,5.231"/>
		<path style="fill:#101929;" d="M604.206,139.564c2.839-0.795,5.6,0.166,7.427,2.452c1.637,2.049,2.25,5.221,2.02,8.578
			c-1.506-0.46-2.513-0.625-4.138,0.363"/>
		<g>
			<path style="fill:#E8587E;" d="M611.449,170.696c-0.572-0.298-0.934-0.886-0.935-1.531c-0.003-1.125-0.007-2.755-0.007-2.755
				l-0.027-10.438l-12.404,4.125l0.022,8.41l0.004,1.622c0,0-1.252,0.723-1.582,0.826c-0.534,3.015,1.864,5.961,5.264,6.306
				c3.828,0.388,8.544-2.579,9.985-5.925c0.029-0.067,0.073-0.309,0.134-0.406C611.903,170.933,611.701,170.827,611.449,170.696z"/>
			
				<path style="fill:none;stroke:#C62846;stroke-width:0.7746;stroke-linecap:round;stroke-linejoin:round;stroke-miterlimit:10;" d="
				M601.154,174.991c0.792,0.431,1.81,0.414,2.587-0.044"/>
		</g>
		<g>
			<polygon style="fill:#E8587E;" points="580.996,238.424 568.813,239.752 568.813,210.472 580.39,210.671 			"/>
			<path style="fill:#D13968;" d="M568.813,210.472c3.974,1.159,11.647,3.716,11.647,3.716l-0.07-3.526L568.813,210.472z"/>
			
				<line style="fill:none;stroke:#C62846;stroke-width:0.909;stroke-linecap:round;stroke-linejoin:round;stroke-miterlimit:10;" x1="578.829" y1="216.581" x2="578.829" y2="227.749"/>
		</g>
		<g>
			<path style="fill:#EB718C;" d="M621.613,210.435l-5.564,15.597c-13.357,1.668-27.236,2.194-41.053,4.788
				c-9.392,1.764-10.68,11.506-10.68,11.506s37.296,0.832,63.621,0c4.93-0.156,9.183-4.222,9.999-9.087
				c1.666-9.94,4.179-22.604,4.179-22.604L621.613,210.435z"/>
			<g>
				<path style="fill:#E2567B;" d="M595.36,239.715c8.473-0.867,19.706,2.484,24.429-4.604c4.024-6.039,13.399-7.719,15.439-21.851
					l6.127,1.271c-1.07,8.066-2.072,11.034-3.496,19.114c-0.173,0.979-8.023,8.549-8.954,8.64l-52.436,0.277
					C579.657,241.631,592.016,240.057,595.36,239.715z"/>
				<path style="fill:#E2567B;" d="M641.355,214.532l0.927-4.097c-2.269-0.439-20.668,0-20.668,0L641.355,214.532z"/>
			</g>
			<g>
				<path style="fill:#C62846;" d="M626.73,242.327c0.045-0.811,0.336-2.577,0.835-3.217c1.218-1.566,2.695-2.931,4.352-4.023
					c1.658-1.092,4.016-1.922,5.943-1.441c-0.192,1.693-1.49,4.453-3.13,5.899C632.681,241.35,630.263,242.574,626.73,242.327z"/>
				
					<path style="fill:none;stroke:#C62846;stroke-width:0.909;stroke-linecap:round;stroke-linejoin:round;stroke-miterlimit:10;" d="
					M639.767,216.227c-0.977,4.938-1.954,9.876-2.931,14.813"/>
				
					<path style="fill:none;stroke:#C62846;stroke-width:0.909;stroke-linecap:round;stroke-linejoin:round;stroke-miterlimit:10;" d="
					M637.881,215.783c-0.222,1.107-0.394,2.224-0.514,3.346"/>
				
					<line style="fill:none;stroke:#C62846;stroke-width:0.909;stroke-linecap:round;stroke-linejoin:round;stroke-miterlimit:10;" x1="616.475" y1="225.995" x2="620.29" y2="225.566"/>
			</g>
		</g>
		<g>
			<g>
				<g>
					<path style="fill:none;stroke:#101929;stroke-linecap:round;stroke-linejoin:round;stroke-miterlimit:10;" d="M581.488,186.738
						c-0.319,1.385-0.549,2.757-0.71,4.132c-0.669,5.723-0.144,11.514,0.099,18.685c0.211,6.239,0.014,14.304,0.369,19.902"/>
					<path style="fill:none;stroke:#101929;stroke-linecap:round;stroke-linejoin:round;stroke-miterlimit:10;" d="M583.327,180.99
						c-0.228,0.554-0.439,1.103-0.634,1.647c-0.169,0.47-0.325,0.937-0.471,1.401"/>
					<path style="fill:none;stroke:#101929;stroke-linecap:round;stroke-linejoin:round;stroke-miterlimit:10;" d="M584.872,195.465
						v-2.955c2.477,0.227,4.966,0.213,7.442-0.044v2.692"/>
					<path style="fill:none;stroke:#101929;stroke-linecap:round;stroke-linejoin:round;stroke-miterlimit:10;" d="M569.215,206.596
						c0.161,0,0.323,0,0.484,0h11.014"/>
					<path style="fill:none;stroke:#101929;stroke-linecap:round;stroke-linejoin:round;stroke-miterlimit:10;" d="M594.462,180.99
						c1.42,6.669,3.389,15.828,3.479,15.761l17.589-23.159"/>
					<path style="fill:none;stroke:#101929;stroke-linecap:round;stroke-linejoin:round;stroke-miterlimit:10;" d="M593.019,174.184
						c0,0,0.312,1.479,0.779,3.68"/>
					<path style="fill:none;stroke:#101929;stroke-linecap:round;stroke-linejoin:round;stroke-miterlimit:10;" d="M585.299,195.783
						c1.937,0,3.873,0,5.81,0"/>
					<path style="fill:none;stroke:#101929;stroke-linecap:round;stroke-linejoin:round;stroke-miterlimit:10;" d="M584.87,195.463
						c0.051,1.312,0.101,2.624,0.151,3.936c0.025,0.657,0.061,1.348,0.414,1.903c0.572,0.899,1.786,1.141,2.85,1.071
						c1.064-0.071,2.128-0.368,3.182-0.208"/>
					<path style="fill:none;stroke:#101929;stroke-linecap:round;stroke-miterlimit:10;" d="M605.536,189.119
						c1.226-1.645,2.453-3.289,3.679-4.933"/>
					
						<line style="fill:none;stroke:#101929;stroke-linecap:round;stroke-miterlimit:10;" x1="578.817" y1="209.612" x2="578.817" y2="200.766"/>
				</g>
				
					<line style="fill:none;stroke:#101929;stroke-linecap:round;stroke-linejoin:round;stroke-miterlimit:10;" x1="641.766" y1="226.843" x2="641.766" y2="240.242"/>
			</g>
			<path style="fill:#115DCC;" d="M608.831,215.639c0.763-1.153,1.547-2.357,1.736-3.727c0.157-1.141-0.112-2.323,0.151-3.444
				c0.251-1.072,0.961-1.971,1.421-2.971c0.812-1.764,0.825-3.774,1.135-5.691c0.645-3.982,3.651-7.966,6.628-10.688
				c0.367,2.327-0.806,6.799-1.467,11.343c-0.729,5.012-0.974,10.01-0.974,10.01h4.127c-1.089,3.636-5.564,15.597-5.564,15.597
				l-13.016,1.361C604.506,224.209,606.855,218.624,608.831,215.639z"/>
			<g>
				<path style="fill:#2A75F4;" d="M642.471,191.471c1.86,4.802,2.303,14.409,2.863,18.852l-27.873,0.15
					c0,0,0.196-4.804,0.974-10.01c1.292-8.636,3.622-19.894,5.169-23.304c0.498-1.097,0.118-1.072,0.118-1.072
					S638.06,180.078,642.471,191.471z"/>
				<path style="fill:none;stroke:#101929;stroke-linecap:round;stroke-linejoin:round;stroke-miterlimit:10;" d="M620.075,186.738
					c-0.184,2.22-0.221,4.452-0.11,6.676"/>
				
					<line style="fill:none;stroke:#101929;stroke-linecap:round;stroke-linejoin:round;stroke-miterlimit:10;" x1="617.9" y1="203.96" x2="624.985" y2="203.96"/>
				
					<line style="fill:none;stroke:#101929;stroke-linecap:round;stroke-linejoin:round;stroke-miterlimit:10;" x1="631.132" y1="203.96" x2="638.093" y2="203.96"/>
				<path style="fill:none;stroke:#101929;stroke-linecap:round;stroke-linejoin:round;stroke-miterlimit:10;" d="M639.292,188.209
					c0.793,1.34,1.433,2.771,1.901,4.256"/>
				
					<line style="fill:none;stroke:#101929;stroke-linecap:round;stroke-linejoin:round;stroke-miterlimit:10;" x1="627.152" y1="203.933" x2="628.929" y2="203.933"/>
				
					<line style="fill:none;stroke:#101929;stroke-linecap:round;stroke-linejoin:round;stroke-miterlimit:10;" x1="640.063" y1="204.175" x2="641.845" y2="204.175"/>
				<path style="fill:none;stroke:#101929;stroke-linecap:round;stroke-linejoin:round;stroke-miterlimit:10;" d="M641.766,194.409
					c0.056,0.269,0.112,0.537,0.169,0.805"/>
				<path style="fill:none;stroke:#101929;stroke-linecap:round;stroke-linejoin:round;stroke-miterlimit:10;" d="M634.475,185.437
					c2.534,2.597,4.41,5.831,5.406,9.32"/>
				<path style="fill:none;stroke:#101929;stroke-linecap:round;stroke-linejoin:round;stroke-miterlimit:10;" d="M622.31,186.324
					c-2.585,6.942-4.849,16.171-4.849,24.147h27.443"/>
			</g>
		</g>
		<g>
			<g>
				<path style="fill:#EB718C;" d="M608.966,163.358c-0.187,0.189-0.382,0.371-0.586,0.544c-3.006,2.557-8.475,3.669-12.067,1.738
					c-4.3-2.311-4.958-5.328-4.193-12.814c0.27-2.644,0.828-6.719,2.804-8.72c3.816-3.865,11.602-2.19,14.929,2.267
					C613.218,150.883,613.192,159.084,608.966,163.358z"/>
				<path style="fill:#EB718C;" d="M609.34,151.091c1.412-1.166,3.773-1.149,5.165,0.036c1.392,1.185,1.624,3.376,0.507,4.793
					c-0.938,1.19-2.519,1.734-4.041,2.189"/>
			</g>
			<g>
				<g>
					<g>
						
							<path style="fill:none;stroke:#C62846;stroke-width:0.909;stroke-linecap:round;stroke-linejoin:round;stroke-miterlimit:10;" d="
							M597.511,152.04c-0.115,0.967-0.312,1.924-0.586,2.858"/>
						
							<line style="fill:none;stroke:#5E0E1A;stroke-width:1.1363;stroke-linecap:round;stroke-linejoin:round;stroke-miterlimit:10;" x1="594.795" y1="152.075" x2="594.795" y2="152.611"/>
						
							<line style="fill:none;stroke:#5E0E1A;stroke-width:1.1363;stroke-linecap:round;stroke-linejoin:round;stroke-miterlimit:10;" x1="600.823" y1="152.075" x2="600.823" y2="152.611"/>
					</g>
					
						<path style="fill:none;stroke:#C62846;stroke-width:0.909;stroke-linecap:round;stroke-linejoin:round;stroke-miterlimit:10;" d="
						M612.878,152.723c-0.374,1.096-0.509,1.717-0.883,2.813"/>
				</g>
				<path style="fill:none;stroke:#101929;stroke-width:0.8;stroke-linecap:round;stroke-miterlimit:10;" d="M599.907,149.861
					c0.751-0.379,1.724-0.264,2.365,0.28"/>
				<path style="fill:none;stroke:#101929;stroke-width:0.8;stroke-linecap:round;stroke-miterlimit:10;" d="M595.967,150.047
					c-0.682-0.492-1.661-0.53-2.38-0.093"/>
			</g>
		</g>
		<g>
			<g>
				<path style="fill:#101929;" d="M610.493,161.358c0,0,2.496-1.331,3.066-4.271c-0.531,0.336-1.623,0.727-1.623,0.727
					l-1.046,2.805L610.493,161.358z"/>
				<path style="fill:#101929;" d="M624.092,175.801c0.071-2.046,0.142-5.049,0.213-7.096c0.139-4.012,0.59-10.926-1.529-14.422
					c-1.729-2.853-3.362-3.77-6.468-4.746c-0.632-0.199-1.29-0.32-1.967-0.351c-0.38,0.523,0.204,1.521,0.381,2.143
					c0.451,0.572,1.097,1.586,0.932,3.114c-0.165,1.528-1.819,2.568-3.01,3.094c1.456,3.999,0.221,9.336-0.151,13.575"/>
				<path style="fill:none;stroke:#101929;stroke-linecap:round;stroke-miterlimit:10;" d="M614.484,148.635
					c2.388-0.195,4.844,0.767,6.464,2.533c1.412,1.539,2.164,3.591,2.472,5.656c0.308,2.066,0.204,4.168,0.099,6.254"/>
				<path style="fill:none;stroke:#101929;stroke-linecap:round;stroke-miterlimit:10;" d="M612.988,158.72
					c0.043,2.034-1.139,11.387-1.139,11.387"/>
			</g>
			<g>
				<path style="fill:#101929;" d="M590.896,148.452c0,0,1.072-3.429,3.599-6.168c2.497-2.707,4.564-2.244,6.361-2.487
					c2.09-0.283,4.206,2.152,4.237,2.884c-1.759,1.666-4.76,3.32-7.085,4.428c-1.509,0.719-4.507,2.024-6.164,1.693L590.896,148.452
					z"/>
				<path style="fill:#101929;" d="M612.524,150.226c-1.926,1.49-4.846,0.692-6.776-1.218c-1.716-1.698-1.843-4.051-2.043-5.274
					c0,0,0.455-1.361,0.835-1.421c1.621-0.258,3.085,1.271,4.513,2.61C610.975,146.723,611.284,147.964,612.524,150.226z"/>
				<path style="fill:#101929;" d="M603.202,139.289c0.504-0.652,2.979-1.162,3.266-1.161c5.13,0.018,9.257,2.697,8.254,13.202
					c-0.488-0.441-0.938-0.692-1.517-0.904c-1.854-0.68-3.621-1.664-5.559-1.895"/>
				<path style="fill:#101929;" d="M590.896,148.452c1.18-3.33,1.13-6.757,3.899-8.678c3.612-2.506,6.876-2.254,10.952-0.577"/>
				<path style="fill:none;stroke:#101929;stroke-linecap:round;stroke-miterlimit:10;" d="M597.939,148.138
					c0.927-0.291,1.779-0.78,2.589-1.316c1.493-0.988,2.993-2.394,3.004-4.184"/>
				<path style="fill:none;stroke:#101929;stroke-linecap:round;stroke-miterlimit:10;" d="M603.438,143.611
					c0.079,1.33,0.161,2.677,0.57,3.946c0.408,1.269,1.185,2.471,2.353,3.114c0.346,0.19,0.736,0.331,1.129,0.288
					c0.437-0.048,0.816-0.313,1.173-0.57c0.824-0.592,1.648-1.185,2.471-1.777"/>
			</g>
		</g>
		<g>
			<path style="fill:#FFFFFF;" d="M606.856,155.145c2.638,0.301,4.265,3.137,3.082,5.514c-0.497,0.999-1.13,1.913-1.903,2.695
				c-0.187,0.189-0.382,0.371-0.586,0.544c-3.006,2.557-8.475,3.669-12.067,1.738c-3.367-1.81-3.79-5.096-3.757-9.579
				c0.003-0.458,2.362-1.127,5.864-1.326C600.566,154.555,604.125,154.833,606.856,155.145z"/>
			<g>
				
					<path style="fill:none;stroke:#FFFFFF;stroke-width:0.909;stroke-linecap:round;stroke-linejoin:round;stroke-miterlimit:10;" d="
					M606.261,155.377c0.908-0.933,1.815-1.865,2.723-2.798c0.511-0.525,1.035-1.07,1.304-1.752"/>
				
					<path style="fill:none;stroke:#FFFFFF;stroke-width:0.909;stroke-linecap:round;stroke-linejoin:round;stroke-miterlimit:10;" d="
					M612.487,158.094c-0.863,0.03-1.723,0.164-2.554,0.399"/>
				
					<path style="fill:none;stroke:#C9DCF4;stroke-width:0.75;stroke-linecap:round;stroke-linejoin:round;stroke-miterlimit:10;" d="
					M607.011,156.608c0.789,0.392,1.405,1.118,1.664,1.96c0.258,0.842,0.156,1.788-0.277,2.555"/>
			</g>
		</g>
	</g>
	<g>
		<rect y="354" style="fill:#74BFE8;" width="750" height="146"/>
		<polygon style="fill:#3BAADB;" points="218.876,354.809 223.11,379.555 29.639,379.68 33.21,354.809 		"/>
		<polygon style="fill:#3BAADB;" points="262.277,354.809 750,500 750,354 		"/>
		<path style="fill:none;stroke:#20728E;stroke-linecap:round;stroke-linejoin:round;stroke-miterlimit:10;" d="M2.485,463.135
			c-0.5,0-1,0-1.5,0h747.885"/>
		<path style="fill:none;stroke:#20728E;stroke-linecap:round;stroke-linejoin:round;stroke-miterlimit:10;" d="M429.964,424.137
			c-1,0-2,0-3,0h-214.51"/>
		
			<line style="fill:none;stroke:#20728E;stroke-linecap:round;stroke-linejoin:round;stroke-miterlimit:10;" x1="131.876" y1="424.137" x2="9.979" y2="424.137"/>
		
			<line style="fill:none;stroke:#20728E;stroke-linecap:round;stroke-linejoin:round;stroke-miterlimit:10;" x1="5.485" y1="379.139" x2="428.921" y2="379.139"/>
		
			<line style="fill:none;stroke:#20728E;stroke-linecap:round;stroke-linejoin:round;stroke-miterlimit:10;" x1="536.876" y1="425.055" x2="745.343" y2="425.055"/>
		
			<line style="fill:none;stroke:#20728E;stroke-linecap:round;stroke-linejoin:round;stroke-miterlimit:10;" x1="204.876" y1="424.137" x2="170.843" y2="424.137"/>
		<path style="fill:none;stroke:#20728E;stroke-linecap:round;stroke-linejoin:round;stroke-miterlimit:10;" d="M166.543,424.137
			c-0.111,0-0.222,0-0.333,0h-16"/>
	</g>
	<g>
		<rect x="0.516" style="fill:#BCD2ED;" width="750" height="35.055"/>
		<g>
			<g>
				<g>
					<g>
						<rect x="0.516" y="266.499" style="fill:#EAEDF4;" width="749.984" height="88.31"/>
						<rect x="248.876" y="85.555" style="fill:#EAEDF4;" width="155.5" height="268.445"/>
						<rect x="404.376" y="87.091" style="fill:#BCD2ED;" width="5.833" height="179.464"/>
					</g>
					<g>
						<polyline style="fill:none;stroke:#8EAABC;stroke-linecap:round;stroke-linejoin:round;stroke-miterlimit:10;" points="
							248.876,354 248.876,177.212 248.876,172.399 						"/>
						
							<line style="fill:none;stroke:#8EAABC;stroke-linecap:round;stroke-linejoin:round;stroke-miterlimit:10;" x1="246.876" y1="340.055" x2="0.087" y2="340.055"/>
						<path style="fill:none;stroke:#8EAABC;stroke-linecap:round;stroke-linejoin:round;stroke-miterlimit:10;" d="
							M247.876,266.055c-0.333,0-0.667,0-1,0H1.672"/>
						
							<line style="fill:none;stroke:#8EAABC;stroke-linecap:round;stroke-linejoin:round;stroke-miterlimit:10;" x1="247.376" y1="262.055" x2="1.376" y2="262.055"/>
						
							<line style="fill:none;stroke:#8EAABC;stroke-linecap:round;stroke-linejoin:round;stroke-miterlimit:10;" x1="404.376" y1="259.388" x2="404.376" y2="352.08"/>
						
							<line style="fill:none;stroke:#8EAABC;stroke-linecap:round;stroke-linejoin:round;stroke-miterlimit:10;" x1="404.376" y1="236.765" x2="404.376" y2="253.888"/>
						<polyline style="fill:none;stroke:#8EAABC;stroke-linecap:round;stroke-linejoin:round;stroke-miterlimit:10;" points="
							404.376,110.902 404.376,165.208 404.376,174.608 						"/>
						<polyline style="fill:none;stroke:#8EAABC;stroke-linecap:round;stroke-linejoin:round;stroke-miterlimit:10;" points="
							248.876,136.722 248.876,85.555 374.826,85.555 404.376,85.555 404.376,92.555 404.376,100.868 						"/>
						
							<line style="fill:none;stroke:#8EAABC;stroke-linecap:round;stroke-linejoin:round;stroke-miterlimit:10;" x1="404.376" y1="266.555" x2="429.865" y2="266.555"/>
					</g>
				</g>
				<g>
					
						<rect x="21.393" y="78.555" style="fill:none;stroke:#8EAABC;stroke-width:0.9836;stroke-linecap:round;stroke-linejoin:round;stroke-miterlimit:10;" width="197.483" height="89.014"/>
					<g>
						<g>
							<rect x="27.651" y="84.954" style="fill:#FFFFFF;" width="88.389" height="76.215"/>
							<rect x="123.472" y="84.954" style="fill:#FFFFFF;" width="89.146" height="76.215"/>
						</g>
						<g>
							<path style="fill:#BCD2ED;" d="M205.936,120.953c0.254-2.977,0.507-5.953,0.761-8.93c0.256-3.009,0.083-6.798-2.678-8.023
								c-1.115-0.495-2.395-0.404-3.602-0.232c-4.224,0.599-8.321,2.077-11.955,4.312c-2.374,1.46-5.315,3.288-7.691,1.83
								c-1.973-1.211-2.181-3.942-3.273-5.984c-2.248-4.203-8.303-4.962-12.619-2.94c-4.317,2.022-7.331,5.992-10.308,9.715
								c-1.843,2.305-4.08,4.752-7.026,4.93c-1.838,0.111-3.602-0.706-5.434-0.901c-5.149-0.546-9.406,3.724-12.803,7.632
								c0.889,0,1.007-0.724,1.896-0.724L205.936,120.953z"/>
							<path style="fill:#BCD2ED;" d="M27.65,127.648c0,0,0.363-0.184,0.546-0.271c1.7-0.803,3.529-1.286,5.42-1.339
								c4.933-0.137,10.028,3.234,10.936,8.084c0.474,2.536,0.137,5.769,2.378,7.047c2.058,1.174,4.542-0.374,6.471-1.75
								c1.944-1.388,4.031-2.689,6.375-3.147c2.344-0.458,5.011,0.081,6.572,1.889c1.143,1.323,1.656,3.236,3.164,4.122
								c2.639,1.55,5.683-1.139,8.671-1.803c3.1-0.689,6.384,1.024,8.252,3.593c1.867,2.569,2.524,4.642,2.651,7.816l-60.96,0.299
								l-0.475,0.002L27.65,127.648z"/>
							<path style="fill:#BCD2ED;" d="M169.565,161.17c0.339-6.152,3.56-12.917,8.535-16.553c1.337-0.977,2.84-1.811,4.484-2.01
								c3.256-0.394,6.49,1.997,7.499,5.118c0.497,1.536,0.658,3.4,2.01,4.282c1.787,1.165,4.05-0.282,5.865-1.405
								c4.299-2.66,9.702-3.578,14.661-2.593v13.162H169.565z"/>
							<path style="fill:#BCD2ED;" d="M116.04,98.106c0,0-0.334-0.057-0.499-0.078c-2.944-0.373-5.959,0.516-8.475,2.09
								c-1.038,0.649-2.17,1.45-3.367,1.196c-1.454-0.309-2.115-1.945-2.759-3.285c-2.959-6.162-4.939-8.854-11.814-8.598
								c-7.918,0.295-12.625,7.125-15.878,16.572l42.792,0.152L116.04,98.106z"/>
						</g>
					</g>
				</g>
				<g>
					<path style="fill:none;stroke:#8EAABC;stroke-linecap:round;stroke-linejoin:round;stroke-miterlimit:10;" d="M676.18,136.216
						c0,11.234-7.8,18.903-19.034,18.903s-20.342-7.668-20.342-18.903s9.107-20.342,20.342-20.342S676.18,124.981,676.18,136.216z"
						/>
					<path style="fill:none;stroke:#8EAABC;stroke-linecap:round;stroke-linejoin:round;stroke-miterlimit:10;" d="M673.707,136.125
						c0,9.812-6.813,16.51-16.625,16.51c-9.812,0-17.767-6.698-17.767-16.51c0-9.812,7.954-17.767,17.767-17.767
						C666.895,118.358,673.707,126.312,673.707,136.125z"/>
					<path style="fill:none;stroke:#8EAABC;stroke-linecap:round;stroke-linejoin:round;stroke-miterlimit:10;" d="M656.249,124.378
						v10.79c2.238,2.765,3.178,4.016,5.416,6.781"/>
				</g>
				<g>
					
						<line style="fill:none;stroke:#8EAABC;stroke-linecap:round;stroke-linejoin:round;stroke-miterlimit:10;" x1="443.376" y1="157.722" x2="541.351" y2="157.722"/>
					
						<line style="fill:none;stroke:#8EAABC;stroke-linecap:round;stroke-linejoin:round;stroke-miterlimit:10;" x1="443.376" y1="119.055" x2="541.351" y2="119.055"/>
					<g>
						<rect x="446.126" y="122.805" style="fill:#8EAABC;" width="10.75" height="31.538"/>
						<path style="fill:#CDDCE8;" d="M453.293,126.847c0,0.989-0.802,1.792-1.792,1.792s-1.792-0.802-1.792-1.792
							c0-0.99,0.802-1.792,1.792-1.792S453.293,125.857,453.293,126.847z"/>
					</g>
					<g>
						<rect x="461.652" y="122.805" style="fill:#8EAABC;" width="10.75" height="31.538"/>
						<path style="fill:#CDDCE8;" d="M468.819,126.847c0,0.989-0.802,1.792-1.792,1.792s-1.792-0.802-1.792-1.792
							c0-0.99,0.802-1.792,1.792-1.792S468.819,125.857,468.819,126.847z"/>
					</g>
					<g>
						<rect x="476.751" y="122.805" style="fill:#8EAABC;" width="10.75" height="31.538"/>
						<path style="fill:#CDDCE8;" d="M483.918,126.847c0,0.989-0.802,1.792-1.792,1.792s-1.792-0.802-1.792-1.792
							c0-0.99,0.802-1.792,1.792-1.792S483.918,125.857,483.918,126.847z"/>
					</g>
					<g>
						<rect x="492.277" y="122.805" style="fill:#8EAABC;" width="10.75" height="31.538"/>
						<path style="fill:#CDDCE8;" d="M499.444,126.847c0,0.989-0.802,1.792-1.792,1.792s-1.792-0.802-1.792-1.792
							c0-0.99,0.802-1.792,1.792-1.792S499.444,125.857,499.444,126.847z"/>
					</g>
					<g>
						<rect x="508.72" y="132.726" style="fill:#8EAABC;" width="7.368" height="21.617"/>
						<path style="fill:#CDDCE8;" d="M513.898,135.496c0,0.678-0.55,1.228-1.228,1.228s-1.228-0.55-1.228-1.228
							c0-0.678,0.55-1.228,1.228-1.228S513.898,134.818,513.898,135.496z"/>
					</g>
					<g>
						<rect x="524.246" y="132.726" style="fill:#8EAABC;" width="7.368" height="21.617"/>
						<path style="fill:#CDDCE8;" d="M529.159,135.496c0,0.678-0.55,1.228-1.228,1.228c-0.678,0-1.228-0.55-1.228-1.228
							c0-0.678,0.55-1.228,1.228-1.228C528.609,134.268,529.159,134.818,529.159,135.496z"/>
					</g>
					
						<line style="fill:none;stroke:#8EAABC;stroke-linecap:round;stroke-linejoin:round;stroke-miterlimit:10;" x1="440.21" y1="160.055" x2="452.21" y2="160.055"/>
					
						<line style="fill:none;stroke:#8EAABC;stroke-linecap:round;stroke-linejoin:round;stroke-miterlimit:10;" x1="480.335" y1="115.305" x2="533.931" y2="115.305"/>
				</g>
			</g>
			<g>
				<rect x="262.277" y="99.074" style="fill:#212E7F;" width="128.699" height="255.735"/>
				<polyline style="fill:none;stroke:#101929;stroke-linecap:round;stroke-linejoin:round;stroke-miterlimit:10;" points="
					268.6,351.288 268.6,104.888 384.653,104.888 384.653,351.483 				"/>
			</g>
		</g>
	</g>
	<g>
		<g>
			<polygon style="fill:#3D4EA0;" points="562.038,95.899 592.888,66.645 621.513,95.899 			"/>
			<path style="fill:#FFFFFF;" d="M601.005,96.098c0,0-0.058,0.16-0.088,0.239c-1.409,3.676-4.971,6.286-9.142,6.286
				c-4.183,0-7.752-2.624-9.153-6.315c-0.026-0.069-0.077-0.209-0.077-0.209L601.005,96.098z"/>
			<path style="fill:none;stroke:#101929;stroke-linecap:round;stroke-linejoin:round;stroke-miterlimit:10;" d="M592.453,59.035
				C592.545,47.187,592.53,5.26,592.798,0"/>
			<polyline style="fill:#0D1A5B;" points="592.94,66.645 621.564,95.899 576.202,95.899 			"/>
			
				<line style="fill:none;stroke:#101929;stroke-linecap:round;stroke-linejoin:round;stroke-miterlimit:10;" x1="587.876" y1="92.722" x2="610.509" y2="92.722"/>
			
				<line style="fill:none;stroke:#101929;stroke-linecap:round;stroke-linejoin:round;stroke-miterlimit:10;" x1="612.71" y1="92.805" x2="615.381" y2="92.805"/>
			
				<line style="fill:none;stroke:#101929;stroke-linecap:round;stroke-linejoin:round;stroke-miterlimit:10;" x1="586.043" y1="92.722" x2="585.012" y2="92.722"/>
			<path style="fill:#101929;" d="M594.494,68.322h-3.392v-7.434c0-0.937,0.759-1.696,1.696-1.696l0,0
				c0.937,0,1.696,0.759,1.696,1.696V68.322z"/>
		</g>
		<g>
			<path style="fill:#FFFFFF;" d="M686.361,96.098c0,0-0.058,0.16-0.088,0.239c-1.409,3.676-4.97,6.286-9.142,6.286
				c-4.182,0-7.752-2.624-9.153-6.315c-0.026-0.069-0.077-0.209-0.077-0.209L686.361,96.098z"/>
			<path style="fill:#3D4EA0;" d="M646.298,95.899l30.391-27.735c0.453-0.433,0.516-0.432,0.954,0.016l28.13,27.719H646.298z"/>
			<path style="fill:none;stroke:#101929;stroke-linecap:round;stroke-linejoin:round;stroke-miterlimit:10;" d="M676.917,61.722
				c1.142-9.694-0.343-22.474-0.567-32.19c-0.213-9.216,0.12-19.948,0.565-29.143"/>
			<polyline style="fill:#0D1A5B;" points="677.149,66.645 705.773,95.899 660.411,95.899 			"/>
			
				<line style="fill:none;stroke:#101929;stroke-linecap:round;stroke-linejoin:round;stroke-miterlimit:10;" x1="652.876" y1="92.805" x2="677.807" y2="92.805"/>
			
				<line style="fill:none;stroke:#101929;stroke-linecap:round;stroke-linejoin:round;stroke-miterlimit:10;" x1="680.71" y1="92.555" x2="683.48" y2="92.555"/>
			
				<line style="fill:none;stroke:#101929;stroke-linecap:round;stroke-linejoin:round;stroke-miterlimit:10;" x1="685.376" y1="92.638" x2="686.407" y2="92.638"/>
			<path style="fill:#101929;" d="M678.827,69.321h-3.392v-8.433c0-0.937,0.759-1.696,1.696-1.696l0,0
				c0.937,0,1.696,0.759,1.696,1.696V69.321z"/>
		</g>
		<g>
			<polygon style="fill:#3D4EA0;" points="477.292,95.899 508.021,66.533 536.767,95.899 			"/>
			<path style="fill:#FFFFFF;" d="M516.381,96.012c0,0-0.058,0.162-0.089,0.242c-1.427,3.724-5.036,6.368-9.262,6.368
				c-4.237,0-7.854-2.658-9.273-6.398c-0.027-0.07-0.078-0.212-0.078-0.212L516.381,96.012z"/>
			
				<line style="fill:none;stroke:#101929;stroke-linecap:round;stroke-linejoin:round;stroke-miterlimit:10;" x1="483.126" y1="93.305" x2="489.543" y2="93.305"/>
			<path style="fill:none;stroke:#101929;stroke-linecap:round;stroke-linejoin:round;stroke-miterlimit:10;" d="M507.759,59.08
				c-1.806-14.215-0.052-54.339,0-59.035"/>
			<polyline style="fill:#0D1A5B;" points="507.954,66.645 536.579,95.899 491.217,95.899 			"/>
			<path style="fill:#101929;" d="M509.748,68.322h-3.392v-7.434c0-0.937,0.759-1.696,1.696-1.696l0,0
				c0.937,0,1.696,0.759,1.696,1.696V68.322z"/>
		</g>
	</g>
	<g>
		<g>
			<path style="fill:#DD801B;" d="M687.525,216.213c2.801-14.928,12.875-28.315,26.443-35.141
				c-0.822,5.098-4.223,10.419-7.32,14.551C701.373,202.661,693.305,209.584,687.525,216.213z"/>
			<path style="fill:none;stroke:#B25D00;stroke-linecap:round;stroke-linejoin:round;stroke-miterlimit:10;" d="M690.265,210.682
				c2.706-4.601,5.714-9.025,8.997-13.233"/>
			<path style="fill:none;stroke:#B25D00;stroke-linecap:round;stroke-linejoin:round;stroke-miterlimit:10;" d="M700.79,195.721
				c1.255-1.487,2.627-2.876,4.098-4.15"/>
			<path style="fill:none;stroke:#B25D00;stroke-linecap:round;stroke-linejoin:round;stroke-miterlimit:10;" d="M706.987,189.179
				c1.51-1.933,3.154-3.76,4.916-5.465"/>
		</g>
		<g>
			<path style="fill:#EDA545;" d="M687.448,216.206c-4.543-16.157-2.799-33.923,4.757-48.91c2.892,15.802-0.132,32.005-4.18,47.55
				C687.958,215.104,687.742,215.744,687.448,216.206z"/>
			<path style="fill:none;stroke:#B25D00;stroke-linecap:round;stroke-linejoin:round;stroke-miterlimit:10;" d="M692.023,168.891
				c-0.489,3.627-2.119,15.331-2.743,18.689"/>
			<path style="fill:none;stroke:#B25D00;stroke-linecap:round;stroke-linejoin:round;stroke-miterlimit:10;" d="M687.322,211.514
				c0.224-3.932,0.258-7.872,0.291-11.809"/>
			<path style="fill:none;stroke:#B25D00;stroke-linecap:round;stroke-linejoin:round;stroke-miterlimit:10;" d="M688.687,189.663
				c-0.451,2.089-0.688,4.575-0.902,6.644"/>
		</g>
		<g>
			<path style="fill:#DD801B;" d="M687.808,216.213c-2.801-14.928-13.201-28.315-26.77-35.141c0.821,5.098,4.223,10.419,7.32,14.551
				c5.075,6.771,18.45,20.583,18.45,20.583L687.808,216.213z"/>
			<path style="fill:none;stroke:#B25D00;stroke-linecap:round;stroke-linejoin:round;stroke-miterlimit:10;" d="M661.244,181.266
				c1.044,1.363,2.26,2.582,3.473,3.797c1.704,1.708,3.409,3.415,5.113,5.123"/>
			<path style="fill:none;stroke:#B25D00;stroke-linecap:round;stroke-linejoin:round;stroke-miterlimit:10;" d="M670.949,191.819
				c2.165,2.612,4.343,5.214,6.532,7.806"/>
			<path style="fill:none;stroke:#B25D00;stroke-linecap:round;stroke-linejoin:round;stroke-miterlimit:10;" d="M678.851,201.665
				c1.174,1.119,2.207,2.385,3.067,3.759"/>
		</g>
		<g>
			<polygon style="fill:#1386F2;" points="706.657,216.206 701.27,242.175 682.698,242.175 682.961,242.175 676.47,242.175 
				669.108,216.206 			"/>
			<path style="fill:none;stroke:#101929;stroke-linecap:round;stroke-linejoin:round;stroke-miterlimit:10;" d="M674.423,229.19
				c0,0,3.058,10.212,3.461,11.669"/>
			<path style="fill:none;stroke:#101929;stroke-linecap:round;stroke-linejoin:round;stroke-miterlimit:10;" d="M678.222,236.182
				c0.395,1.352,0.791,2.703,1.186,4.055"/>
			<path style="fill:#115DCC;" d="M689.912,235.234c6.014-5.526,12.383-12.124,16.745-19.028
				c-0.915,7.181-4.348,18.512-5.262,25.694h-14.434l0,0C686.961,239.361,688.042,236.952,689.912,235.234z"/>
		</g>
		<g>
			<path style="fill:#EDA545;" d="M723.841,205.457c-5.732-4.297-13.478-5.776-20.39-3.894c-6.912,1.883-13.166,8.039-15.927,14.649
				l0.931-0.007c0,0,8.462-6.237,12.631-7.602c2.622-0.859,5.351-1.339,8.073-1.793
				C714.765,205.875,718.205,206.195,723.841,205.457z"/>
			<path style="fill:none;stroke:#B25D00;stroke-linecap:round;stroke-linejoin:round;stroke-miterlimit:10;" d="M711.813,204.156
				c3.833-0.036,7.719,0.487,11.497,1.334"/>
			<path style="fill:none;stroke:#B25D00;stroke-linecap:round;stroke-linejoin:round;stroke-miterlimit:10;" d="M704.933,204.891
				c1.193-0.258,2.401-0.443,3.619-0.563"/>
			<path style="fill:none;stroke:#B25D00;stroke-linecap:round;stroke-linejoin:round;stroke-miterlimit:10;" d="M687.613,216.007
				c1.725-4.374,7.727-7.876,12.914-9.807c0.784-0.292,1.56-0.55,2.313-0.771"/>
		</g>
		<g>
			<path style="fill:#EDA545;" d="M650.95,205.457c5.732-4.297,13.485-5.803,20.389-3.894c7.132,1.973,18.527,10.233,15.927,14.649
				l-0.931-0.007c0,0-8.462-6.237-12.631-7.602c-2.622-0.859-5.351-1.339-8.073-1.793
				C660.026,205.875,656.586,206.195,650.95,205.457z"/>
			<path style="fill:none;stroke:#B25D00;stroke-linecap:round;stroke-linejoin:round;stroke-miterlimit:10;" d="M651.309,205.195
				c5.852-2.473,12.478-2.601,18.681-1.228"/>
			<path style="fill:none;stroke:#B25D00;stroke-linecap:round;stroke-linejoin:round;stroke-miterlimit:10;" d="M672.839,204.671
				c1.289,0.242,2.537,0.703,3.675,1.357"/>
			<path style="fill:none;stroke:#B25D00;stroke-linecap:round;stroke-linejoin:round;stroke-miterlimit:10;" d="M678.573,207.057
				c2.198,1.441,4.276,3.066,6.204,4.851c1.182,1.094,2.374,2.382,2.534,3.985"/>
		</g>
	</g>
	<g>
		<g>
			<g>
				<path style="fill:#FFFFFF;" d="M749.466,413.732h-20.657H431.229V241.947h262.304c15.182,0,28.971,6.08,39.06,15.934
					c10.405,10.163,16.873,24.339,16.873,39.998V413.732z"/>
			</g>
			<g>
				<path style="fill:#BCD2ED;" d="M732.241,413.732h-22.82H572.159h-140.93l-0.066-150.257h249.857
					c13.904,0,26.531,5.568,35.77,14.592c9.529,9.307,15.452,22.289,15.452,36.629V413.732z"/>
			</g>
			<g>
				<path style="fill:#99BDE0;" d="M431.163,263.475l249.857,0.189c10.428,0,20.138,3.132,28.238,8.505
					c2.7,1.791,7.531,6.087,7.531,6.087l-285.951-7.39L431.163,263.475z"/>
			</g>
			<rect x="564.726" y="304.666" style="fill:#99BDE0;" width="49.041" height="49.041"/>
			<rect x="564.726" y="304.666" style="fill:#FFFFFF;" width="46.493" height="49.041"/>
			<g>
				<rect x="583.776" y="314.016" style="fill:#FF5F5F;" width="8.392" height="30.34"/>
				
					<rect x="583.776" y="314.016" transform="matrix(-1.836970e-16 1 -1 -1.836970e-16 917.1584 -258.7862)" style="fill:#FF5F5F;" width="8.392" height="30.34"/>
			</g>
		</g>
		
			<line style="fill:none;stroke:#101929;stroke-linecap:round;stroke-linejoin:round;stroke-miterlimit:10;" x1="749.466" y1="413.732" x2="418.416" y2="413.732"/>
		<rect x="430.412" y="292.831" style="fill:#8ABBD6;" width="33.151" height="11.834"/>
		<rect x="664.047" y="312.338" style="fill:#69A8C4;" width="33.151" height="11.834"/>
		<rect x="603.274" y="275.31" style="fill:#69A8C4;" width="33.151" height="11.834"/>
		<rect x="463.563" y="280.997" style="fill:#4D90C1;" width="33.151" height="11.834"/>
		<rect x="668.401" y="393.213" style="fill:#69A8C4;" width="33.151" height="11.834"/>
		<rect x="568.948" y="393.213" style="fill:#8ABBD6;" width="33.151" height="11.834"/>
		<rect x="602.099" y="381.295" style="fill:#4D90C1;" width="33.151" height="11.834"/>
		<rect x="635.25" y="381.295" style="fill:#DCE7F4;" width="33.151" height="11.834"/>
		<rect x="570.123" y="263.475" style="fill:#4D90C1;" width="33.151" height="11.834"/>
		<rect x="630.896" y="324.163" style="fill:#DCE7F4;" width="33.151" height="11.834"/>
		<rect x="668.401" y="368.947" style="fill:#4D90C1;" width="33.151" height="11.834"/>
		<rect x="697.198" y="324.163" style="fill:#8ABBD6;" width="35.043" height="11.834"/>
		<rect x="463.563" y="304.666" style="fill:#DCE7F4;" width="33.151" height="11.834"/>
		<polyline style="fill:none;stroke:#156987;stroke-linecap:round;stroke-linejoin:round;stroke-miterlimit:10;" points="
			477.339,241.94 431.229,241.94 430.509,292.611 		"/>
		
			<line style="fill:none;stroke:#156987;stroke-linecap:round;stroke-linejoin:round;stroke-miterlimit:10;" x1="527.842" y1="242.331" x2="670.343" y2="242.331"/>
		
			<line style="fill:none;stroke:#156987;stroke-linecap:round;stroke-linejoin:round;stroke-miterlimit:10;" x1="430.412" y1="302.134" x2="431.163" y2="400.767"/>
		<path style="fill:none;stroke:#156987;stroke-linecap:round;stroke-linejoin:round;stroke-miterlimit:10;" d="M694.677,242.331
			c15.182,0,28.971,6.081,39.06,15.934"/>
		
			<line style="fill:none;stroke:#156987;stroke-linecap:round;stroke-linejoin:round;stroke-miterlimit:10;" x1="674.509" y1="242.331" x2="686.977" y2="242.331"/>
		
			<line style="fill:none;stroke:#156987;stroke-linecap:round;stroke-linejoin:round;stroke-miterlimit:10;" x1="431.229" y1="263.475" x2="544.763" y2="263.475"/>
		
			<line style="fill:none;stroke:#156987;stroke-linecap:round;stroke-linejoin:round;stroke-miterlimit:10;" x1="550.326" y1="263.576" x2="618.491" y2="263.576"/>
		
			<line style="fill:none;stroke:#156987;stroke-linecap:round;stroke-linejoin:round;stroke-miterlimit:10;" x1="624.576" y1="263.826" x2="639.36" y2="263.826"/>
		
			<line style="fill:none;stroke:#156987;stroke-linecap:round;stroke-linejoin:round;stroke-miterlimit:10;" x1="648.326" y1="263.326" x2="661.412" y2="263.326"/>
		
			<line style="fill:none;stroke:#156987;stroke-linecap:round;stroke-linejoin:round;stroke-miterlimit:10;" x1="664.167" y1="263.576" x2="670.744" y2="263.576"/>
		<path style="fill:none;stroke:#156987;stroke-linecap:round;stroke-linejoin:round;stroke-miterlimit:10;" d="M732.076,321.576
			c0,0.167,0,0.333,0,0.5v50.789"/>
		
			<line style="fill:none;stroke:#156987;stroke-linecap:round;stroke-linejoin:round;stroke-miterlimit:10;" x1="732.076" y1="376.076" x2="732.076" y2="385.33"/>
		
			<line style="fill:none;stroke:#156987;stroke-linecap:round;stroke-linejoin:round;stroke-miterlimit:10;" x1="731.826" y1="389.076" x2="731.826" y2="395.406"/>
		
			<line style="fill:none;stroke:#156987;stroke-linecap:round;stroke-linejoin:round;stroke-miterlimit:10;" x1="434.619" y1="260.159" x2="477.339" y2="260.159"/>
		
			<line style="fill:none;stroke:#156987;stroke-linecap:round;stroke-linejoin:round;stroke-miterlimit:10;" x1="735.826" y1="404.493" x2="735.826" y2="350.476"/>
		
			<line style="fill:none;stroke:#156987;stroke-linecap:round;stroke-linejoin:round;stroke-miterlimit:10;" x1="583.941" y1="260.159" x2="627.544" y2="260.159"/>
		
			<line style="fill:none;stroke:#156987;stroke-linecap:round;stroke-linejoin:round;stroke-miterlimit:10;" x1="657.492" y1="260.159" x2="664.167" y2="260.159"/>
	</g>
	<g>
		<g>
			<polygon style="fill:#3D4EA0;" points="521.061,438.253 491.74,438.253 462.899,438.253 462.899,393.495 521.061,393.495 
				521.061,401.944 			"/>
			<g>
				<g>
					<path style="fill:none;stroke:#101929;stroke-linecap:round;stroke-miterlimit:10;" d="M497.452,322.327
						c-1.727,7.381-0.83,25.225-1.085,28.68c-1.04,14.115-0.831,28.23-1.871,42.345"/>
					
						<line style="fill:none;stroke:#101929;stroke-linecap:round;stroke-miterlimit:10;" x1="495.675" y1="364.448" x2="500.744" y2="354.352"/>
					<path style="fill:none;stroke:#101929;stroke-linecap:round;stroke-miterlimit:10;" d="M491.59,336.114
						c1.022-0.042,1.981,0.577,2.609,1.384c0.628,0.807,0.984,1.788,1.33,2.75c0.742,2.065,0.677,2.667,0.862,4.853"/>
				</g>
				<path style="fill:#1F9970;" d="M546.254,372.607c-0.974-5.78-1.337-12.577-5.712-18.119c-2.031-0.321-6.142-0.018-8,0
					c-1.858,0.018-4.072,0.433-5.304-0.14c-0.351-0.164-0.547-0.58-0.619-0.961c-0.111-0.591,0.288-1.184,0.807-1.487
					c0.52-0.303,1.137-0.378,1.735-0.439c3-0.307,6.019-0.432,9.035-0.375c-0.298-0.006-1.385-1.372-1.681-1.637
					c-0.658-0.589-1.345-1.148-2.067-1.657c-1.432-1.012-2.538-2.297-4.344-3.249c-4.438-2.342-8.784-2.057-11.25,0.938
					c-0.875,1.063-1.602,4.211-1.303,4.582c-1.334-1.653-2.952-3.104-4.78-4.191c-1.785-1.061-3.972-2.014-6.08-1.548
					c-4.401,0.972-5.747,6.34-5.354,10.243c0.284,2.825,1.654,5.395,3.043,7.817c0.198,0.345,0.399,0.689,0.598,1.034
					c1.467,2.529,3.673,5.352,5.483,7.647c0.793-2.5,1.701-5.087,3.596-6.9c0.38-0.364,0.974-0.699,1.396-0.384
					c0.16,0.12,0.25,0.31,0.324,0.496c0.673,1.693,0.506,3.606,0.074,5.376c-0.431,1.77-1.113,3.475-1.458,5.264
					c0.077-0.296,0.298,0.313,0.538,0.503c3.24,2.57,6.479,5.14,9.719,7.71c0.081-2.439,0.198-5.37,1.024-7.667
					c0.071-0.197,0.149-0.401,0.306-0.539c0.335-0.297,0.898-0.155,1.197,0.18c0.298,0.334,0.401,0.794,0.493,1.233
					c0.686,3.27,1.376,6.599,1.07,9.926c2.461,0.388,4.574,2.139,6.548,3.659c3.422,2.633,6.843,5.267,10.264,7.9
					C547.297,389.77,547.623,380.729,546.254,372.607z"/>
				<g>
					<path style="fill:#1D9E73;" d="M482.415,328.378c0.52-0.257,1.04-0.514,1.559-0.771c0.891-0.441,1.794-0.886,2.766-1.097
						c0.972-0.211,2.036-0.165,2.896,0.333c1.119,0.648,1.71,1.944,1.947,3.216c0.719,3.852-1.166,7.662-2.994,11.128
						c-0.396-0.906-1.24-2.127-1.864-2.893c-1.329-1.63-2.658-3.26-3.987-4.89c-0.669,0.103-1.437,0.491-1.629,1.14
						c-0.469,1.581-0.002,3.283,0.612,4.814c0.766,1.907,1.766,3.72,2.971,5.385c0.088-0.046,0.143-0.149,0.132-0.247
						c-1.783,1.409-3.575,3.332-5.358,4.741c-3.521,2.783-7.062,5.585-10.041,8.942c-0.441-1.259-1.229-2.306-1.67-3.564
						c-0.372-1.06-0.759-2.148-1.498-2.994c-0.322-0.368-0.764-0.703-1.251-0.651c-0.847,0.09-1.129,1.167-1.192,2.016
						c-0.251,3.367-0.355,6.744-0.31,10.12c-6.419,4.306-13.081,9.058-19.174,13.814c-0.868-3.563-1.585-7.623-1.777-11.284
						c-0.006-0.108-0.014-0.224-0.084-0.306s-0.225-0.096-0.273,0s0.135,0.202,0.169,0.099c1.579-0.395,3.396-1.075,4.787-1.919
						c0.807-0.49,1.661-1.234,1.565-2.173c-0.072-0.699-0.685-1.245-1.354-1.458c-0.669-0.213-1.39-0.159-2.091-0.104
						c-0.719,0.057-1.439,0.114-2.158,0.171c0.071-7.178,1.159-14.897,3.976-21.499c0.624-1.462,1.462-3.037,2.97-3.542
						c1.885,0.517,4.532,0.635,6.485,0.71c0.493,0.019,0.993,0.023,1.472-0.094c0.989-0.24,1.829-1.022,2.139-1.992
						c0.31-0.97,0.081-2.094-0.585-2.864c-0.727-0.841-1.858-1.214-2.696-1.945c-0.079-0.069-0.178-0.147-0.278-0.115
						c-0.1,0.032-0.038,0.276,0.026,0.192c3.593-4.697,9.055-8.779,16.199-7.659C474.007,321.326,479.61,321.516,482.415,328.378z"
						/>
					<path style="fill:none;stroke:#101929;stroke-linecap:round;stroke-miterlimit:10;" d="M464.898,341.472
						c4.643-5.805,10.097-10.702,16.973-13.418"/>
					<path style="fill:none;stroke:#101929;stroke-linecap:round;stroke-miterlimit:10;" d="M457.629,352.054
						c1.226-2.011,2.497-4.004,3.833-5.94c0.573-0.831,1.158-1.652,1.756-2.459"/>
					<path style="fill:none;stroke:#101929;stroke-linecap:round;stroke-miterlimit:10;" d="M444.332,376.055
						c3.315-5.767,6.276-11.936,9.591-17.703c0.676-1.176,1.361-2.359,2.058-3.543"/>
				</g>
				<g>
					<path style="fill:#17A072;" d="M503.503,311.587c-0.57-0.107-1.14-0.215-1.71-0.322c-0.977-0.184-1.967-0.369-2.959-0.309
						c-0.993,0.06-2.005,0.39-2.699,1.103c-0.902,0.926-1.121,2.334-1.007,3.622c0.347,3.904,3.191,7.063,5.887,9.907
						c0.137-0.979,0.62-2.383,1.014-3.289c0.84-1.928,1.679-3.856,2.519-5.784c0.672-0.081,1.516,0.085,1.876,0.658
						c0.878,1.396,0.889,3.161,0.71,4.8c-0.223,2.043-0.697,4.058-1.407,5.987c-0.097-0.021-0.177-0.105-0.194-0.202
						c2.097,0.876,4.342,2.243,6.439,3.119c4.142,1.729,8.308,3.471,12.082,5.899c0.085-1.331,0.561-2.552,0.646-3.883
						c0.072-1.121,0.151-2.273,0.634-3.287c0.21-0.442,0.546-0.883,1.029-0.965c0.839-0.142,1.402,0.819,1.692,1.619
						c1.151,3.174,2.162,6.398,3.03,9.661c7.343,2.414,15.04,5.191,22.191,8.126c-0.126-3.664-0.532-7.768-1.335-11.345
						c-0.024-0.105-0.047-0.219-0.002-0.317c0.045-0.098,0.19-0.153,0.263-0.073c0.073,0.079-0.075,0.23-0.136,0.141
						c-1.627,0.046-3.56-0.118-5.128-0.556c-0.909-0.254-1.932-0.74-2.093-1.67c-0.12-0.692,0.323-1.384,0.91-1.77
						c0.587-0.386,1.296-0.529,1.985-0.664c0.708-0.139,1.416-0.279,2.125-0.418c-2.005-6.892-5.137-14.031-9.631-19.628
						c-0.995-1.24-2.227-2.53-3.815-2.609c-1.676,1.007-4.192,1.835-6.053,2.434c-0.47,0.151-0.95,0.29-1.443,0.307
						c-1.018,0.036-2.037-0.49-2.598-1.34c-0.561-0.85-0.643-1.994-0.21-2.915c0.473-1.006,1.461-1.67,2.071-2.6
						c0.058-0.088,0.132-0.19,0.237-0.185c0.105,0.004,0.111,0.255,0.027,0.192c-4.727-3.553-11.089-6.009-17.665-3.002
						C509.695,302.527,504.352,304.223,503.503,311.587z"/>
					<path style="fill:none;stroke:#101929;stroke-linecap:round;stroke-miterlimit:10;" d="M507.534,312.979
						c-1.506-0.661-3.032-1.279-4.58-1.85"/>
					<path style="fill:none;stroke:#101929;stroke-linecap:round;stroke-miterlimit:10;" d="M518.574,318.68
						c-2.112-1.242-4.254-2.424-6.435-3.526"/>
					<path style="fill:none;stroke:#101929;stroke-linecap:round;stroke-miterlimit:10;" d="M553.34,347.37
						c-2.812-6.509-8.83-10.964-14.586-15.103c-5.153-3.705-10.343-7.43-15.703-10.842c-0.801-0.51-1.606-1.013-2.416-1.508"/>
				</g>
				<g>
					<rect x="458.663" y="392.56" style="fill:#212E7F;" width="66.612" height="9.384"/>
					
						<line style="fill:none;stroke:#101929;stroke-linecap:round;stroke-linejoin:round;stroke-miterlimit:10;" x1="466.965" y1="404.547" x2="494.465" y2="404.547"/>
					
						<line style="fill:none;stroke:#101929;stroke-linecap:round;stroke-linejoin:round;stroke-miterlimit:10;" x1="487.964" y1="406.602" x2="499.317" y2="406.602"/>
					
						<line style="fill:none;stroke:#101929;stroke-linecap:round;stroke-linejoin:round;stroke-miterlimit:10;" x1="501.131" y1="406.435" x2="503.984" y2="406.435"/>
				</g>
				<path style="fill:none;stroke:#09281E;stroke-linecap:round;stroke-miterlimit:10;" d="M536.66,376.917
					c2.935,5.199,5.462,10.415,7.176,15.15c0.731,2.018,1.313,3.948,1.717,5.753"/>
				<path style="fill:none;stroke:#09281E;stroke-linecap:round;stroke-miterlimit:10;" d="M525.181,359.328
					c2.547,3.41,5.137,7.176,7.588,11.073c0.736,1.17,1.459,2.352,2.165,3.539"/>
				<path style="fill:none;stroke:#09281E;stroke-linecap:round;stroke-miterlimit:10;" d="M517.552,350.062
					c1.304,1.401,2.686,2.997,4.11,4.746"/>
			</g>
			<polygon style="fill:#212E7F;" points="521.061,401.944 521.061,438.253 464.898,438.253 514.164,401.765 			"/>
		</g>
		
			<line style="fill:none;stroke:#101929;stroke-linecap:round;stroke-linejoin:round;stroke-miterlimit:10;" x1="462.899" y1="438.253" x2="531.038" y2="438.253"/>
	</g>
	<g>
		<path style="fill:#3D4EA0;" d="M476.59,222.645h71.282c3.758,0,6.591-3.414,5.899-7.107l-6.138-32.754
			c-0.532-2.839-3.011-4.896-5.899-4.896h-71.282c-3.758,0-6.591,3.414-5.899,7.107l6.138,32.754
			C471.223,220.588,473.702,222.645,476.59,222.645z"/>
		<path style="fill:#212E7F;" d="M472.881,222.645h71.282c3.758,0,6.591-3.414,5.899-7.107l-6.138-32.754
			c-0.532-2.839-3.011-4.896-5.899-4.896h-71.282c-3.758,0-6.591,3.414-5.899,7.107l6.138,32.754
			C467.514,220.588,469.993,222.645,472.881,222.645z"/>
		<polygon style="fill:#212E7F;" points="486.44,241.94 505.743,241.94 512.231,203.924 493.218,203.924 		"/>
		<path style="fill:#212E7F;" d="M491.296,241.94h23.813c0.99,0,1.793-0.803,1.793-1.793v0c0-0.99-0.803-1.793-1.793-1.793h-23.813
			V241.94z"/>
		<polyline style="fill:none;stroke:#101929;stroke-linecap:round;stroke-linejoin:round;stroke-miterlimit:10;" points="
			502.895,241.94 509.673,203.924 493.218,203.924 486.44,241.94 504.633,241.94 		"/>
		<path style="fill:none;stroke:#101929;stroke-linecap:round;stroke-linejoin:round;stroke-miterlimit:10;" d="M508.32,241.94
			h6.789c0.99,0,1.793-0.803,1.793-1.793v0c0-0.99-0.803-1.793-1.793-1.793h-9.016"/>
		
			<line style="fill:none;stroke:#101929;stroke-linecap:round;stroke-linejoin:round;stroke-miterlimit:10;" x1="544.396" y1="185.305" x2="547.2" y2="200.266"/>
		
			<line style="fill:none;stroke:#101929;stroke-linecap:round;stroke-linejoin:round;stroke-miterlimit:10;" x1="547.886" y1="203.924" x2="549.026" y2="210.007"/>
		
			<line style="fill:none;stroke:#101929;stroke-linecap:round;stroke-linejoin:round;stroke-miterlimit:10;" x1="510.849" y1="203.924" x2="510.159" y2="207.969"/>
		
			<line style="fill:none;stroke:#101929;stroke-linecap:round;stroke-linejoin:round;stroke-miterlimit:10;" x1="474.876" y1="183.768" x2="491.891" y2="183.768"/>
		
			<line style="fill:none;stroke:#101929;stroke-linecap:round;stroke-linejoin:round;stroke-miterlimit:10;" x1="505.111" y1="213.518" x2="502.376" y2="229.504"/>
		<path style="fill:#0D1A5B;" d="M512.231,203.924c6.393,0.674,26.229,18.649,32.658,18.677l-35.853,0.044
			C510.919,217.215,510.155,209.283,512.231,203.924z"/>
		<path style="fill:none;stroke:#101929;stroke-linecap:round;stroke-linejoin:round;stroke-miterlimit:10;" d="M512.231,219.269
			h28.058c3.448,0,6.049-3.133,5.414-6.522l-4.941-26.683c-0.488-2.605-2.763-4.493-5.414-4.493h-65.415
			c-3.448,0-6.049,3.133-5.414,6.522l4.941,26.682c0.488,2.605,2.763,4.493,5.413,4.493h13.258"/>
		
			<line style="fill:none;stroke:#101929;stroke-linecap:round;stroke-linejoin:round;stroke-miterlimit:10;" x1="513.564" y1="217.33" x2="530.564" y2="217.33"/>
		
			<line style="fill:none;stroke:#101929;stroke-linecap:round;stroke-linejoin:round;stroke-miterlimit:10;" x1="512.231" y1="203.924" x2="506.093" y2="238.353"/>
	</g>
	<g>
		<path style="fill:#0D1A5B;" d="M221.07,343.173l4.204,34.633c0.36,1.968-1.166,3.775-3.166,3.75l0,0
			c-1.238-0.015-2.354-0.747-2.861-1.876l-13.221-36.507"/>
		<path style="fill:#0D1A5B;" d="M27.816,343.173l-4.204,34.633c-0.36,1.968,1.166,3.775,3.166,3.75l0,0
			c1.237-0.015,2.354-0.747,2.861-1.876l13.221-36.507"/>
		<path style="fill:#2A75F4;" d="M21.876,295.151h205.54l7.323,19.877c0,0-0.323,25.484-0.323,28.068l-222.54,1v-26.304
			L21.876,295.151z"/>
		<polygon style="fill:#115DCC;" points="234.417,343.096 11.876,344.096 11.876,317.792 126.375,316.372 218.615,315.228 
			234.74,315.028 		"/>
		
			<line style="fill:none;stroke:#101929;stroke-linecap:round;stroke-linejoin:round;stroke-miterlimit:10;" x1="229.194" y1="315.097" x2="231.613" y2="315.067"/>
		
			<line style="fill:none;stroke:#101929;stroke-linecap:round;stroke-linejoin:round;stroke-miterlimit:10;" x1="221.546" y1="315.192" x2="226.754" y2="315.127"/>
		
			<line style="fill:none;stroke:#101929;stroke-linecap:round;stroke-linejoin:round;stroke-miterlimit:10;" x1="191.614" y1="315.563" x2="215.675" y2="315.265"/>
		
			<line style="fill:none;stroke:#101929;stroke-linecap:round;stroke-linejoin:round;stroke-miterlimit:10;" x1="126.375" y1="316.372" x2="186.572" y2="315.626"/>
	</g>
	<g>
		<g>
			<g>
				<g>
					<path style="fill:#101929;" d="M345.906,128.242c0.099,1.328,1.187,2.36,2.302,3.09c1.114,0.729,2.367,1.334,3.158,2.406
						c1.752,2.372,0.63,6.15,2.651,8.298c0.814,0.865,1.999,1.284,2.889,2.071c2.127,1.883,1.992,5.183,1.686,8.007
						c-5.849,4.276-13.889,5.76-20.867,3.811c1.78-7.331,2.782-14.771,4.562-22.102c0.218-0.897,0.436-1.795,0.608-2.703
						c0.102-0.538,0.192-1.09,0.46-1.568C343.801,128.756,345.001,128.132,345.906,128.242z"/>
					<path style="fill:#101929;" d="M330.576,156.433c-1.952-0.497-3.859-1.171-5.691-2.01c-1.287-0.589-2.58-1.296-3.428-2.43
						c-0.848-1.134-1.133-2.798-0.329-3.963c0.729-1.056,2.236-1.621,2.436-2.888c0.164-1.034-0.652-1.93-1.097-2.878
						c-0.809-1.722-0.365-3.835,0.7-5.411c1.065-1.576,2.666-2.706,4.293-3.692c1.125-0.681,2.31-1.335,3.128-2.365
						c0.262,5.839,1.219,11.988,1.481,17.827c0.117,2.617,0.233,5.263-0.262,7.836c-0.038,0.197-0.091,0.411-0.254,0.529
						C331.391,157.105,330.575,156.633,330.576,156.433z"/>
					<path style="fill:none;stroke:#101929;stroke-width:0.8;stroke-linecap:round;stroke-miterlimit:10;" d="M325.986,132.554
						c-0.5,2.098-3.007,2.678-4.063,4.19c-1.283,1.839-0.671,4.374,0.256,6.415c0.318,0.7,0.673,1.41,0.709,2.178
						c0.048,1.027-0.48,1.982-0.747,2.975c-0.267,0.993-0.154,2.269,0.754,2.752"/>
					<path style="fill:none;stroke:#101929;stroke-linecap:round;stroke-miterlimit:10;" d="M322.466,146.593
						c-0.928,0.31-1.735,0.969-2.224,1.816c-0.49,0.847-0.658,1.875-0.463,2.834"/>
					<path style="fill:none;stroke:#101929;stroke-width:0.8;stroke-linecap:round;stroke-miterlimit:10;" d="M345.528,130.069
						c0.76,1.208,6.215,2.444,7.149,4.408c0.771,1.62,0.473,3.526,0.766,5.296c0.213,1.289,0.762,2.538,1.657,3.49
						c0.608,0.646,1.358,1.144,1.984,1.772c1.562,1.569,2.217,3.804,2.747,5.953"/>
				</g>
				<g>
					<g>
						<rect x="329.971" y="149.415" style="fill:#E2567B;" width="11.754" height="14.708"/>
						<path style="fill:#EB718C;" d="M343.949,149.951c-1.262,2.095-3.074,3.756-5.44,4.61c-2.954,1.066-6.458,1.161-9.276-0.363
							c-2.862-1.548-3.901-4.35-4.432-7.4c-0.946-5.44-0.29-13.09,4.32-16.844c5.144-4.188,12.885-1.069,15.492,4.503
							C346.843,139.221,346.679,145.421,343.949,149.951z"/>
						<path style="fill:#EB718C;" d="M343.563,141.161c1.296-1.183,3.492-1.202,4.807-0.04c1.57,1.387,1.58,4.049,0.28,5.692
							c-1.3,1.643-3.594,2.291-5.664,1.968"/>
					</g>
					<g>
						<g>
							
								<path style="fill:none;stroke:#C62846;stroke-width:0.8064;stroke-linecap:round;stroke-linejoin:round;stroke-miterlimit:10;" d="
								M331.054,140.419c-0.102,0.858-0.276,1.707-0.52,2.535"/>
							
								<line style="fill:none;stroke:#5E0E1A;stroke-width:1.008;stroke-linecap:round;stroke-linejoin:round;stroke-miterlimit:10;" x1="328.644" y1="140.451" x2="328.644" y2="140.926"/>
							
								<line style="fill:none;stroke:#5E0E1A;stroke-width:1.008;stroke-linecap:round;stroke-linejoin:round;stroke-miterlimit:10;" x1="333.992" y1="140.451" x2="333.992" y2="140.926"/>
						</g>
						<path style="fill:none;stroke:#101929;stroke-width:0.8;stroke-linecap:round;stroke-miterlimit:10;" d="M333.694,138.003
							c0.811-0.257,1.706-0.242,2.508,0.043"/>
						<path style="fill:none;stroke:#101929;stroke-width:0.8;stroke-linecap:round;stroke-miterlimit:10;" d="M327.128,137.933
							c0.795-0.423,1.772-0.492,2.618-0.183"/>
					</g>
				</g>
				<g>
					<path style="fill:#101929;" d="M348.001,136.61c-2.261,1.471-5.27,1.489-7.767,0.47c-2.497-1.02-4.526-2.965-6.096-5.158
						c-0.659-0.921-1.271-1.915-2.193-2.573c0.107-1.248,0.56-2.248,1.554-3.008c1.233-0.942,2.66-1.693,4.202-1.864
						c2.744-0.304,6.492,1.601,8.206,3.765c1.714,2.164,2.527,4.341,2.473,7.14C348.363,136.246,347.718,135.793,348.001,136.61z"/>
					<path style="fill:#101929;" d="M335.173,127.563c-1.402,4.732-5.499,8.563-10.314,9.646c0.232-3.323,0.257-6.903,2.83-9.02
						C329.855,126.408,332.395,127.182,335.173,127.563z"/>
					<path style="fill:#101929;" d="M341.726,136.723c1.62,1.156,2.335,5.147,1.76,7.052c-0.575,1.905-1.348,4.038-0.395,5.785
						c0.338,0.619,0.863,1.111,1.295,1.669c1.024,1.323,1.51,3.051,1.326,4.714c-0.185-0.029,0.648,0.026,0.818-0.053
						c0.17-0.079,0.367-0.012,0.549,0.035c0.949,0.243,2.032-0.197,2.544-1.033c0.511-0.836,0.41-2-0.238-2.735
						c-0.467-0.529-1.158-0.827-1.599-1.378c-1.259-1.572,0.192-3.996-0.507-5.885c-0.26-0.704-0.807-1.281-1.024-2
						c-0.174-0.575-0.121-1.191-0.067-1.79c0.24-2.656,0.479-5.313,0.719-7.969"/>
					<path style="fill:none;stroke:#101929;stroke-width:0.8;stroke-linecap:round;stroke-miterlimit:10;" d="M333.074,130.421
						c0.378,3.432,3.173,6.45,6.561,7.117c0.787,0.155,1.592,0.194,2.393,0.233c1.107,0.053,2.393,0.031,3.082-0.837"/>
				</g>
			</g>
			<g>
				<g>
					
						<path style="fill:none;stroke:#FFFFFF;stroke-width:0.8871;stroke-linecap:round;stroke-linejoin:round;stroke-miterlimit:10;" d="
						M338.041,143.428c-0.051-0.066-0.143,0.073-0.078,0.125c0.065,0.052,0.306,0.027,0.236-0.02
						c-0.159-0.105,8.106-3.736,8.422-3.736"/>
					
						<path style="fill:none;stroke:#FFFFFF;stroke-width:0.8871;stroke-linecap:round;stroke-linejoin:round;stroke-miterlimit:10;" d="
						M340.16,149.238c2.41-0.069,4.817-0.224,7.215-0.463"/>
					<path style="fill:#FFFFFF;" d="M338.603,142.993c2.438,0.326,3.943,3.398,2.851,5.971c-0.459,1.081-1.043,2.07-1.758,2.917
						c-0.173,0.205-0.353,0.401-0.541,0.589c-2.778,2.767-7.831,3.968-11.152,1.876c-3.113-1.961-3.507-5.7-3.478-10.554
						c0.003-0.496,2.184-1.038,5.421-1.251C332.789,142.353,336.079,142.655,338.603,142.993z"/>
				</g>
				
					<path style="fill:none;stroke:#C9DCF4;stroke-width:0.75;stroke-linecap:round;stroke-linejoin:round;stroke-miterlimit:10;" d="
					M339.331,144.776c0.618,0.643,1.013,1.496,1.103,2.383c0.085,0.842-0.17,1.803-0.905,2.222"/>
			</g>
		</g>
		<polygon style="fill:#DAE6F7;" points="337.272,239.902 333.984,361.735 348.185,361.735 337.91,239.902 		"/>
		<g>
			<g>
				<path style="fill:#FFFFFF;" d="M356.236,402.361v23.05c1.444,0,47.698,0.657,47.698,0.657v-1.936
					c0-5.522-3.731-10.347-9.075-11.736l-7.439-1.934c-3.179-0.826-5.737-3.181-6.818-6.283c-0.205-0.589-0.418-1.202-0.63-1.819"/>
				
					<line style="fill:none;stroke:#2A75F4;stroke-linecap:round;stroke-linejoin:round;stroke-miterlimit:10;" x1="398.111" y1="420.402" x2="402.743" y2="420.402"/>
				<path style="fill:none;stroke:#2A75F4;stroke-linecap:round;stroke-linejoin:round;stroke-miterlimit:10;" d="M391.978,419.527
					c-0.108-2.771,1.663-5.519,4.232-6.564"/>
				
					<line style="fill:none;stroke:#2A75F4;stroke-linecap:round;stroke-linejoin:round;stroke-miterlimit:10;" x1="392.569" y1="421.402" x2="392.569" y2="426.175"/>
				<path style="fill:none;stroke:#2A75F4;stroke-linecap:round;stroke-linejoin:round;stroke-miterlimit:10;" d="M376.919,408.467
					c1.71-0.418,3.377-1.012,4.966-1.769"/>
				<path style="fill:none;stroke:#2A75F4;stroke-linecap:round;stroke-linejoin:round;stroke-miterlimit:10;" d="M380.894,411.723
					c1.234-0.872,2.468-1.744,3.702-2.617"/>
				<path style="fill:none;stroke:#2A75F4;stroke-linecap:round;stroke-linejoin:round;stroke-miterlimit:10;" d="M386.227,413.724
					c1.331-1.003,2.662-2.006,3.994-3.009"/>
				<path style="fill:#C3D2E5;" d="M360.542,402.361c-0.151,7.419,0.277,23.085,0.277,23.085l-4.583-0.035l-0.044-11.596
					l0.044-11.454H360.542z"/>
				
					<line style="fill:none;stroke:#2A75F4;stroke-linecap:round;stroke-linejoin:round;stroke-miterlimit:10;" x1="356.903" y1="420.402" x2="394.689" y2="420.402"/>
				
					<line style="fill:none;stroke:#2A75F4;stroke-linecap:round;stroke-linejoin:round;stroke-miterlimit:10;" x1="364.236" y1="420.402" x2="364.236" y2="425.446"/>
				
					<line style="fill:none;stroke:#2A75F4;stroke-linecap:round;stroke-linejoin:round;stroke-miterlimit:10;" x1="373.569" y1="420.735" x2="373.569" y2="425.414"/>
				
					<line style="fill:none;stroke:#2A75F4;stroke-linecap:round;stroke-linejoin:round;stroke-miterlimit:10;" x1="384.236" y1="420.402" x2="384.236" y2="425.446"/>
				<path style="fill:none;stroke:#2A75F4;stroke-linecap:round;stroke-linejoin:round;stroke-miterlimit:10;" d="M364.236,409.51
					c0,1.216-0.986,2.202-2.202,2.202c-1.216,0-2.202-0.986-2.202-2.202c0-1.216,0.986-2.202,2.202-2.202
					C363.25,407.308,364.236,408.294,364.236,409.51z"/>
			</g>
			<g>
				
					<line style="fill:none;stroke:#A9CCDB;stroke-width:0.8;stroke-linecap:round;stroke-linejoin:round;stroke-miterlimit:10;" x1="288.048" y1="420.402" x2="283.416" y2="420.402"/>
				<path style="fill:#FFFFFF;" d="M331.114,402.361v23.05c-1.444,0-47.698,0.657-47.698,0.657v-1.936
					c0-5.522,3.731-10.347,9.075-11.736l7.439-1.934c3.179-0.826,5.737-3.181,6.818-6.283c0.205-0.589,0.418-1.202,0.63-1.819"/>
				
					<line style="fill:none;stroke:#2A75F4;stroke-linecap:round;stroke-linejoin:round;stroke-miterlimit:10;" x1="289.239" y1="420.402" x2="284.607" y2="420.402"/>
				<path style="fill:none;stroke:#2A75F4;stroke-linecap:round;stroke-linejoin:round;stroke-miterlimit:10;" d="M295.371,419.527
					c0.108-2.771-1.663-5.519-4.232-6.564"/>
				
					<line style="fill:none;stroke:#2A75F4;stroke-linecap:round;stroke-linejoin:round;stroke-miterlimit:10;" x1="313.78" y1="420.735" x2="313.78" y2="425.414"/>
				
					<line style="fill:none;stroke:#2A75F4;stroke-linecap:round;stroke-linejoin:round;stroke-miterlimit:10;" x1="303.114" y1="420.402" x2="303.114" y2="425.446"/>
				
					<line style="fill:none;stroke:#2A75F4;stroke-linecap:round;stroke-linejoin:round;stroke-miterlimit:10;" x1="294.78" y1="421.402" x2="294.78" y2="426.175"/>
				<path style="fill:none;stroke:#2A75F4;stroke-linecap:round;stroke-linejoin:round;stroke-miterlimit:10;" d="M310.431,408.467
					c-1.71-0.418-3.377-1.012-4.966-1.769"/>
				<path style="fill:none;stroke:#2A75F4;stroke-linecap:round;stroke-linejoin:round;stroke-miterlimit:10;" d="M306.456,411.723
					c-1.234-0.872-2.468-1.744-3.702-2.617"/>
				<path style="fill:none;stroke:#2A75F4;stroke-linecap:round;stroke-linejoin:round;stroke-miterlimit:10;" d="M301.122,413.724
					c-1.331-1.003-2.662-2.006-3.993-3.009"/>
				<polyline style="fill:#C3D2E5;" points="323.852,402.25 331.185,402.25 331.114,425.412 323.114,425.446 323.852,402.957 				
					"/>
				
					<line style="fill:none;stroke:#2A75F4;stroke-linecap:round;stroke-linejoin:round;stroke-miterlimit:10;" x1="330.447" y1="420.402" x2="292.661" y2="420.402"/>
				
					<line style="fill:none;stroke:#2A75F4;stroke-linecap:round;stroke-linejoin:round;stroke-miterlimit:10;" x1="323.114" y1="420.402" x2="323.114" y2="425.446"/>
				<path style="fill:none;stroke:#2A75F4;stroke-linecap:round;stroke-linejoin:round;stroke-miterlimit:10;" d="M323.114,409.51
					c0,1.216,0.986,2.202,2.202,2.202c1.216,0,2.202-0.986,2.202-2.202c0-1.216-0.986-2.202-2.202-2.202
					C324.1,407.308,323.114,408.294,323.114,409.51z"/>
			</g>
		</g>
		<g>
			<g>
				<polygon style="fill:#EDA545;" points="353.21,218.361 318.97,218.361 318.97,164.229 327.569,162.402 344.278,162.61 
					353.21,164.229 				"/>
				<rect x="327.236" y="158.183" style="fill:#EDA545;" width="17.229" height="7.466"/>
				<g>
					
						<line style="fill:none;stroke:#B76E16;stroke-linecap:round;stroke-linejoin:round;stroke-miterlimit:10;" x1="329.153" y1="158.636" x2="329.153" y2="162.225"/>
					
						<line style="fill:none;stroke:#B76E16;stroke-linecap:round;stroke-linejoin:round;stroke-miterlimit:10;" x1="333.074" y1="158.636" x2="333.074" y2="162.225"/>
					
						<line style="fill:none;stroke:#B76E16;stroke-linecap:round;stroke-linejoin:round;stroke-miterlimit:10;" x1="335.949" y1="158.636" x2="335.949" y2="162.225"/>
					
						<line style="fill:none;stroke:#B76E16;stroke-linecap:round;stroke-linejoin:round;stroke-miterlimit:10;" x1="339.871" y1="158.636" x2="339.871" y2="162.225"/>
					
						<line style="fill:none;stroke:#B76E16;stroke-linecap:round;stroke-linejoin:round;stroke-miterlimit:10;" x1="342.986" y1="158.636" x2="342.986" y2="162.225"/>
					
						<line style="fill:none;stroke:#B76E16;stroke-linecap:round;stroke-linejoin:round;stroke-miterlimit:10;" x1="327.236" y1="162.402" x2="343.022" y2="162.402"/>
				</g>
				<g>
					<path style="fill:none;stroke:#B76E16;stroke-linecap:round;stroke-linejoin:round;stroke-miterlimit:10;" d="M333.48,189.918
						c2.688,0.9,5.449,1.582,8.247,2.037"/>
					<path style="fill:none;stroke:#B76E16;stroke-linecap:round;stroke-linejoin:round;stroke-miterlimit:10;" d="M329.987,192.928
						c4.78-0.139,9.549-0.644,14.252-1.509"/>
				</g>
			</g>
			<g>
				<g>
					<polygon style="fill:#2A75F4;" points="353.21,218.361 319.422,218.361 304.122,402.361 332.888,402.361 337.272,239.902 
						337.91,239.902 351.611,402.361 385.236,402.361 361.835,304.201 					"/>
					<path style="fill:#101929;" d="M336.762,223.808L336.762,223.808c-0.822,0-1.495-0.673-1.495-1.495l0,0
						c0-0.822,0.673-1.495,1.495-1.495l0,0c0.822,0,1.495,0.673,1.495,1.495l0,0C338.257,223.136,337.584,223.808,336.762,223.808z"
						/>
					
						<line style="fill:none;stroke:#101929;stroke-linecap:round;stroke-linejoin:round;stroke-miterlimit:10;" x1="336.569" y1="239.902" x2="338.903" y2="239.902"/>
					<polygon style="fill:#115DCC;" points="333.997,368.652 327.822,219.029 325.154,219.029 321.768,365.734 					"/>
					<path style="fill:#DAE6F7;" d="M344.679,305.477"/>
					<polygon style="fill:#115DCC;" points="345.88,334.402 356.236,402.361 351.611,402.361 					"/>
					
						<line style="fill:none;stroke:#101929;stroke-linecap:round;stroke-linejoin:round;stroke-miterlimit:10;" x1="336.569" y1="222.735" x2="336.569" y2="239.072"/>
					
						<line style="fill:none;stroke:#101929;stroke-linecap:round;stroke-linejoin:round;stroke-miterlimit:10;" x1="352.236" y1="395.402" x2="374.019" y2="395.402"/>
					
						<line style="fill:none;stroke:#101929;stroke-linecap:round;stroke-linejoin:round;stroke-miterlimit:10;" x1="365.736" y1="392.402" x2="374.791" y2="392.402"/>
					
						<line style="fill:none;stroke:#101929;stroke-linecap:round;stroke-linejoin:round;stroke-miterlimit:10;" x1="378.236" y1="395.402" x2="379.736" y2="395.402"/>
					
						<line style="fill:none;stroke:#101929;stroke-linecap:round;stroke-linejoin:round;stroke-miterlimit:10;" x1="305.236" y1="396.402" x2="325.242" y2="396.402"/>
				</g>
				
					<line style="fill:none;stroke:#101929;stroke-linecap:round;stroke-linejoin:round;stroke-miterlimit:10;" x1="324.736" y1="218.361" x2="351.611" y2="218.361"/>
			</g>
		</g>
		<g>
			<g>
				<path style="fill:#FFFFFF;" d="M326.195,162.691c-5.24,0.945-10.399,2.28-15.427,3.773c-1.292,2.825,0.678,42.155,1.336,45.438
					c-23.55,35.308-33.387,148.257-33.387,148.257l43.035,5.575C322.395,360.547,326.195,168.053,326.195,162.691z"/>
				<path style="fill:#FFFFFF;" d="M309.584,232.603c-2.511-1.992-5.021-3.985-7.532-5.978c-6.117-4.854-12.681-10.45-13.848-18.171
					c-1.155-7.641,2.958-18.465,6.671-25.242c5.51-10.059,15.892-16.748,15.892-16.748c0.683,0.502,0.576,1.08,0.671,1.923
					c1.339,11.827,2.679,23.654,4.018,35.481C316.692,214.773,316.287,223.913,309.584,232.603z"/>
				<g>
					<path style="fill:none;stroke:#2A75F4;stroke-linecap:round;stroke-linejoin:round;stroke-miterlimit:10;" d="M319.719,164.591
						c0.895,1.106,1.79,2.212,2.685,3.318c-1.765,1.032-2.956,2.497-4.721,3.529c-0.272,0.159-0.572,0.359-0.615,0.671
						c-0.04,0.293,0.167,0.556,0.359,0.78c2.823,3.279,5.449,6.728,7.859,10.323"/>
					<path style="fill:none;stroke:#2A75F4;stroke-linecap:round;stroke-linejoin:round;stroke-miterlimit:10;" d="M310.553,167.069
						c0,0.111,0,0.222,0,0.333v26.669"/>
					<path style="fill:none;stroke:#2A75F4;stroke-linecap:round;stroke-linejoin:round;stroke-miterlimit:10;" d="M298.443,265.21
						c5.953-3.392,11.607-7.308,16.875-11.689"/>
					<g>
						<rect x="312.937" y="184.402" style="fill:#FF5F5F;" width="8.253" height="3"/>
						<path style="fill:none;stroke:#2A75F4;stroke-linecap:round;stroke-linejoin:round;stroke-miterlimit:10;" d="
							M313.219,188.277c0,0.333,0,2.755,0,2.755c0.125,0,7.884-0.005,7.884-0.005v-1.125"/>
					</g>
					
						<line style="fill:none;stroke:#2A75F4;stroke-linecap:round;stroke-linejoin:round;stroke-miterlimit:10;" x1="316.041" y1="364.994" x2="317.161" y2="314.263"/>
					<path style="fill:none;stroke:#2A75F4;stroke-linecap:round;stroke-linejoin:round;stroke-miterlimit:10;" d="M280.239,355.217
						c13.273,1.417,27.198,4.844,40.543,4.562"/>
					<path style="fill:none;stroke:#2A75F4;stroke-linecap:round;stroke-linejoin:round;stroke-miterlimit:10;" d="M314.776,307.906
						c1.231-2.429-1.082,30.996-1.082,30.996"/>
				</g>
			</g>
			<g>
				<path style="fill:#FFFFFF;" d="M358.61,165.548c12.733,3.645,17.476,9.003,20.797,21.824c1.156,4.464-2.151,21.277-1.22,36.119
					c1.742,27.791,7.493,60.348,8.871,74.157c-0.824-0.355-2.231-0.942-3.128-0.942h-24.026"/>
				<g>
					<path style="fill:#FFFFFF;" d="M370.157,171.874c9.167,5.248,23.561,41.322,23.632,47.48
						c0.049,4.176-9.641,40.287-14.052,47.432c-4.355-3.862-12.955-14.466-16.497-19.085c1.315-13.14,7.049-28.371,7.049-28.371
						l-7.705-18.819c0,0,0.858-21.312,1.156-26.888c0.049-0.923-1.408-5.684,0-5.751
						C365.148,167.805,368.13,169.499,370.157,171.874z"/>
					<g>
						<path style="fill:#FFFFFF;" d="M345.837,162.691c5.24,0.945,11.094,2.193,15.427,3.664c1.292,2.825-0.678,42.155-1.335,45.438
							c34.978,60.579,31.165,152.847,31.165,152.847l-37.317,4.482C353.134,363.934,345.837,162.691,345.837,162.691z"/>
						<path style="fill:#C9DCF4;" d="M376.8,259.026c0.732-3.654,1.725-5.404,3.902-9.124c1.295-2.212,2.605-4.336,3.205-6.905
							c0.408-1.746-0.35-4.137,0-5.908c1.289-6.513,2.277-13.093,3.625-19.007c0.55-2.414,1.033-4.955,0.366-7.339
							c-0.609-2.175-2.106-3.97-3.487-5.758c-4.292-5.556-5.559-12.93-8.169-19.447c-2.719-6.789-7.386-15.726-14.118-18.583
							c0.337-0.916,6.296,2.588,7.042,3.216c11.642,9.812,15.514,21.986,22.251,35.64c1.537,3.116,3.01,6.333,3.481,9.775
							c0.471,3.443-4.656,24.785-10.07,38.286c-0.562,1.4-2.482,7.718-4.462,11.775C379.896,263.753,379.265,261.6,376.8,259.026z"
							/>
						<path style="fill:#C9DCF4;" d="M391.094,364.64c0,0-1.855,0.334-3.079,0.37c-0.415-28.305-3.117-56.657-8.021-84.536
							c-0.567-3.221-0.962-10.851-0.962-10.851s1.917-5.899,3.085-8.099c2.928,9.039,4.048,21.537,5.308,30.954
							c2.768,20.681,3.785,41.371,3.791,62.187C391.217,357.989,391.139,361.307,391.094,364.64z"/>
						<path style="fill:#DAE6F7;" d="M362.584,200.511c-2.164,12.144,2.656,24.783,1.656,38.61
							c2.983-6.458,4.749-14.343,5.929-21.358C367.47,212.497,365.797,207.403,362.584,200.511z"/>
					</g>
					<g>
						<path style="fill:none;stroke:#2A75F4;stroke-linecap:round;stroke-linejoin:round;stroke-miterlimit:10;" d="
							M352.104,164.593c-0.895,1.106-1.79,2.212-2.685,3.318c1.765,1.032,2.956,2.497,4.721,3.529
							c0.272,0.159,0.572,0.359,0.615,0.671c0.04,0.293-0.167,0.556-0.359,0.78c-2.823,3.279-5.07,6.167-7.479,9.761"/>
						<path style="fill:none;stroke:#2A75F4;stroke-linecap:round;stroke-linejoin:round;stroke-miterlimit:10;" d="
							M362.264,167.216c-0.415,2.668,0.193,13.713,0.41,26.552"/>
						<path style="fill:none;stroke:#2A75F4;stroke-linecap:round;stroke-linejoin:round;stroke-miterlimit:10;" d="
							M362.675,246.691c8.781,4.18,16.783,14.18,17.562,19.351"/>
						<path style="fill:none;stroke:#2A75F4;stroke-linecap:round;stroke-linejoin:round;stroke-miterlimit:10;" d="
							M362.584,200.511c2.568,5.971,5.137,11.941,7.705,17.912c-2.81,11.56-6.427,21.709-8.721,33.383"/>
						<path style="fill:none;stroke:#2A75F4;stroke-linecap:round;stroke-linejoin:round;stroke-miterlimit:10;" d="
							M370.641,217.955c1.708-1.375,3.596-2.527,5.6-3.415"/>
						<path style="fill:none;stroke:#2A75F4;stroke-linecap:round;stroke-linejoin:round;stroke-miterlimit:10;" d="M370.54,218.007
							c2.168,0.534,4.213,1.562,5.936,2.983"/>
						
							<line style="fill:none;stroke:#2A75F4;stroke-linecap:round;stroke-linejoin:round;stroke-miterlimit:10;" x1="350.907" y1="217.872" x2="353.299" y2="251.805"/>
						<path style="fill:none;stroke:#2A75F4;stroke-linecap:round;stroke-linejoin:round;stroke-miterlimit:10;" d="
							M390.613,357.028c-11.733,2.988-23.676,5.149-35.712,6.461"/>
						
							<line style="fill:none;stroke:#2A75F4;stroke-linecap:round;stroke-linejoin:round;stroke-miterlimit:10;" x1="353.931" y1="226.54" x2="354.191" y2="233.879"/>
						<path style="fill:none;stroke:#2A75F4;stroke-linecap:round;stroke-linejoin:round;stroke-miterlimit:10;" d="
							M369.682,229.906c-1.027,3.214-2.054,6.427-3.081,9.641"/>
					</g>
				</g>
			</g>
			<g>
				<g>
					<polygon style="fill:#2A75F4;" points="274.977,176.777 307.866,183.743 326.477,214.55 298.227,209.635 					"/>
					<g>
						<polygon style="fill:#212E7F;" points="307.866,183.743 308.779,182.806 327.454,213.634 326.477,214.55 						"/>
						<polygon style="fill:#212E7F;" points="274.977,176.777 275.845,175.872 308.779,182.806 307.866,183.743 						"/>
						
							<line style="fill:none;stroke:#101929;stroke-linecap:round;stroke-linejoin:round;stroke-miterlimit:10;" x1="294.271" y1="194.538" x2="299.434" y2="200.047"/>
						<path style="fill:none;stroke:#101929;stroke-linecap:round;stroke-linejoin:round;stroke-miterlimit:10;" d="
							M297.854,194.657c0.644,0.671,1.288,1.343,1.932,2.014"/>
					</g>
				</g>
				<g>
					<path style="fill:#FFFFFF;" d="M290.321,227.826c4.083,6.988,10.93,6.012,16.25,3.888c5.32-2.124,8.836-11.671,7.648-17.274
						c-0.234-1.103-0.644-2.203-1.412-3.028c-0.722-0.775-1.702-1.249-2.657-1.706c-2.477-1.185-4.682-2.744-7.374-3.913
						c-1.668-0.724-7.831-0.798-7.831-0.798l-3.819-5.397C285.205,208.098,286.639,220.464,290.321,227.826z"/>
					<path style="fill:none;stroke:#2A75F4;stroke-linecap:round;stroke-linejoin:round;stroke-miterlimit:10;" d="M302.824,232.89
						c2.424-0.348,4.883-0.705,7.129-1.683c1.232-0.537,2.423-1.294,3.139-2.431c1.172-1.863,0.824-4.277,0.271-6.406"/>
					<path style="fill:none;stroke:#2A75F4;stroke-linecap:round;stroke-linejoin:round;stroke-miterlimit:10;" d="M295.499,205.8
						c-2.332,5.842-2.329,12.58,0.008,18.42c0.539,1.348,1.253,2.712,2.475,3.495"/>
					<path style="fill:#DAE6F7;" d="M311.018,222.394c0.047,0.026,0.501,2.761,0.268,3.7c-0.233,0.939-0.593,2.003-1.403,2.531
						c-0.334,0.217-1.287,0.055-1.678-0.017c-0.551-0.1-1.255-0.959-1.597-1.403c-0.938-1.219-1.396-2.626-1.396-2.626
						s2.388-0.907,3.018-1.093C308.753,223.332,310.935,222.348,311.018,222.394z"/>
					<path style="fill:none;stroke:#2A75F4;stroke-linecap:round;stroke-linejoin:round;stroke-miterlimit:10;" d="M303.007,205.633
						c-0.52,6.581-0.026,11.998,2.002,18.637c0.666,2.18,3.905,7.034,5.872,3.121c0.526-1.046,0.555-2.362,0.439-3.51"/>
				</g>
				<g>
					<path style="fill:#EB718C;" d="M308.307,223.381c2.838-0.913,13.188-5.433,15.807-8.443c0.554-0.637,1.013-1.152,1.364-1.608
						c1.088-1.412,1.876-3.229,0.135-5.079c-0.793-0.843-1.554-0.599-1.819-1.09c-0.172-0.319,0.493-0.779,0.5-1.59
						c0.017-1.91-1.621-3.526-3.508-3.516c0.555-1.399,0.356-3.073-0.512-4.303c-0.868-1.23-2.378-1.979-3.882-1.924
						c-0.459,0.016-1.044,0.26-0.988,0.716c0.175,1.432-1.899,2.33-3.141,3.064c-0.161,0.095-0.341,0.186-0.526,0.163
						c-0.322-0.039-2.923-5.077-3.617-4.918c-0.664,0.153-2.251,0.872-2.394,1.538c-0.372,1.725,0.138,3.52,0.835,5.141
						c0.317,0.737,0.681,1.499,0.621,2.298c-0.061,0.8-2.985,2.831-3.776,2.699c-0.786,7.379,2.142,17.911,2.142,17.911
						S307.27,223.715,308.307,223.381z"/>
					<path style="fill:none;stroke:#101929;stroke-linecap:round;stroke-linejoin:round;stroke-miterlimit:10;" d="M323.505,207.131
						c-0.839,1.015-1.922,1.825-3.132,2.343"/>
					<path style="fill:none;stroke:#101929;stroke-linecap:round;stroke-linejoin:round;stroke-miterlimit:10;" d="M320.785,202.056
						c-0.69,0.543-2.23,1.563-2.92,2.106"/>
					<path style="fill:#E2567B;" d="M303.419,206.388c2.276,6.305,5.394,11.159,9.359,15.203c-2.357,1.207-7.231,2.849-7.231,2.849
						s-1.743-5.963-2.039-8.684C303.19,212.833,303.008,210.381,303.419,206.388z"/>
				</g>
			</g>
		</g>
	</g>
	<g>
		<g>
			<path style="fill:#EDA545;" d="M63.053,285.142l-7.441,17.4c0,10.704,8.677,19.382,19.382,19.382H97.9l-10.373,26.953
				c-1.088,2.826,0.998,5.864,4.027,5.864h57.059c2.172,0,4.005-1.614,4.28-3.768l6.68-52.315
				c0.475-7.319-5.333-13.516-12.667-13.516H63.053z"/>
			<path style="fill:#EDA545;" d="M91.365,215.443h21.884c8.332,0,9.394,6.567,8.69,14.87l0.188,63.098H55.612l14.518-61.182
				C72.464,222.39,81.252,215.443,91.365,215.443z"/>
			<path style="fill:none;stroke:#101929;stroke-width:0.8;stroke-linecap:round;stroke-miterlimit:10;" d="M100.676,285.675
				c0.111,0,0.222,0,0.333,0h10.05"/>
			
				<line style="fill:none;stroke:#101929;stroke-width:0.8;stroke-linecap:round;stroke-miterlimit:10;" x1="87.843" y1="348.342" x2="151.976" y2="348.342"/>
			
				<line style="fill:none;stroke:#101929;stroke-width:0.8;stroke-linecap:round;stroke-miterlimit:10;" x1="139.843" y1="345.842" x2="152.502" y2="345.842"/>
		</g>
		<g>
			<path style="fill:#101929;" d="M134.534,285.19c-5.249,0.111-12.431-0.049-12.431-0.049c0.18-5.854-4.106-69.198-4.106-69.198
				C128.343,217.842,133.204,279.571,134.534,285.19z"/>
			<path style="fill:#0D1A5B;" d="M115.697,285.19l6.405-0.049c0.717-16.052,1.101-56.582,0.074-62.608
				c-1.083-6.359-3.408-7.091-8.928-7.091C112.603,217.458,116.602,264.6,115.697,285.19z"/>
		</g>
		<rect x="160.868" y="260.329" style="fill:#101929;" width="6" height="138.096"/>
		<g>
			<path style="fill:#0D1A5B;" d="M42.86,333.535c5.051-18.718,10.101-37.437,15.152-56.155c1.168-4.327,2.337-8.662,3.108-13.077
				c0.887-5.077,1.241-10.232,1.948-15.338c1.302-9.409,3.972-18.98,10.107-26.231s16.389-11.628,25.411-8.66
				c0.952,0.313,1.928,0.739,2.521,1.548c0.688,0.941-5.554,2.56-5.553,3.725c0.028,25.302,3.53,52.105,5.758,77.346
				c0.628,7.117,0.421,14.291-0.821,21.327c-0.717,4.062-1.801,8.117-3.927,11.647c-5.004,8.307-15.136,12.413-24.83,12.704
				c-1.834,0.055-3.659-0.005-5.477-0.158c-5.897-0.496-11.602-2.334-16.813-5.138L42.86,333.535z"/>
			<g>
				<path style="fill:#071444;" d="M80.517,249.289c-0.519,6.801,18.552,24.132,18.552,24.132l-1.384-14.512
					C97.684,258.909,83.76,251.758,80.517,249.289z"/>
				<g>
					<path style="fill:#0D1A5B;" d="M96.454,226.044c7.826,8.089,20.775,16.521,44.991,19.318c1.872,0.216,3.301,1.781,3.326,3.665
						c0.062,4.713,0.072,13.092,0.073,17.9c0,2.089-1.712,3.783-3.801,3.746c-3.928-0.07-7.042-0.643-11.598-1.423
						c-12.697-2.174-24.376-6.783-36.457-12.517c-2.869-1.362-11.559-4.402-12.473-7.443c-1.689-1.25-3.198-2.709-4.521-4.224
						c-4.712-5.398-4.575-13.485,0.313-18.724h0C81.722,220.538,90.936,220.341,96.454,226.044z"/>
					
						<line style="fill:none;stroke:#101929;stroke-width:0.8;stroke-linecap:round;stroke-miterlimit:10;" x1="136.343" y1="245.342" x2="136.343" y2="269.067"/>
				</g>
			</g>
			<g>
				<g>
					<path style="fill:none;stroke:#101929;stroke-width:0.8;stroke-linecap:round;stroke-miterlimit:10;" d="M94.944,268.385
						c1.562,13.342,2.205,26.792,1.924,40.223c-0.109,5.206-0.405,10.599-2.797,15.224c-4.378,8.461-10.935,14.945-23.442,14.945"/>
					<path style="fill:none;stroke:#101929;stroke-width:0.8;stroke-linecap:round;stroke-miterlimit:10;" d="M66.599,338.383
						c-1.655,0.063-3.282-0.396-4.868-0.875c-5.915-1.786-13.721-5.5-16.704-7.833"/>
					<path style="fill:none;stroke:#101929;stroke-width:0.8;stroke-linecap:round;stroke-miterlimit:10;" d="M63.053,335.526
						c3.707,0.814,7.496,1.256,11.291,1.316"/>
				</g>
				<g>
					<g>
						<path style="fill:none;stroke:#101929;stroke-width:0.8;stroke-linecap:round;stroke-miterlimit:10;" d="M67.116,304.432
							c5.392,2.342,10.023,4.354,15.415,6.696"/>
						<path style="fill:none;stroke:#101929;stroke-width:0.8;stroke-linecap:round;stroke-miterlimit:10;" d="M68.603,299.454
							c5.392,2.342,10.369,4.504,15.761,6.847"/>
						<circle style="fill:#101929;" cx="75.942" cy="305.44" r="1.375"/>
					</g>
					<path style="fill:none;stroke:#101929;stroke-width:0.8;stroke-linecap:round;stroke-miterlimit:10;" d="M68.342,299.454
						c-1.754,4.897-3.223,8.998-4.977,13.895"/>
					<path style="fill:none;stroke:#101929;stroke-width:0.8;stroke-linecap:round;stroke-miterlimit:10;" d="M84.214,306.301
						c-1.259,3.992-2.813,7.891-4.645,11.655"/>
				</g>
			</g>
		</g>
		<g>
			<path style="fill:#E2567B;" d="M167.371,259.57c-0.286-2.362-7.155-6.541-9.048-6.72c-4.507-0.425-9.033-0.513-13.548-0.265
				v12.839c0,0,8.152-0.38,12.385,0.251c0.022,2.225,0.157,2.073,1.538,3.463c0.782,0.786,6.516,1.212,8.028-0.017
				C168.237,267.894,167.535,260.922,167.371,259.57z"/>
			<path style="fill:none;stroke:#101929;stroke-width:0.8;stroke-linecap:round;stroke-miterlimit:10;" d="M159.843,260.329
				c2.438,2.075,3.801,5.818,3.502,9.558"/>
			<path style="fill:none;stroke:#101929;stroke-width:0.8;stroke-linecap:round;stroke-miterlimit:10;" d="M163.027,257.654
				c2.165,1.716,3.288,7,3.841,10.865"/>
		</g>
		<g>
			<g>
				<path style="fill:#E85D81;" d="M109.684,215.603c1.403,2.257,0.826,5.135,0.219,6.835c-1.432,4.012-8.953,6.188-13.196,0.669
					c-1.155-1.502-0.911-7.663-0.911-7.663C95.797,215.443,109.683,215.601,109.684,215.603z"/>
				<g>
					<g>
						<path style="fill:#EB718C;" d="M109.086,194.713c1.752,0.143,3.26,1.435,4.058,3.001c0.798,1.566,0.985,3.372,0.983,5.13
							c-0.001,1.429-0.114,2.89,0.301,4.257c0.29,0.956,0.821,1.806,1.424,2.609c0.497,0.661,0.243,1.635-0.509,1.98
							c-0.429,0.197-0.871,0.367-1.321,0.509c0.177,3.477,0.157,5.456-1.501,7.36c-1.658,1.904-3.842,2.861-6.366,2.878
							c-3.27,0.022-6.757-1.604-7.994-4.631c-0.678-1.659-0.618-3.521-0.418-5.301c0.393-3.488,0.313-10.401,2.023-13.467
							C101.476,195.972,104.85,193.672,109.086,194.713z"/>
						<path style="fill:#EB718C;" d="M98.983,212.151c-2.015-0.737-3.455-2.823-3.43-4.968c0.006-0.523,0.092-1.05,0.301-1.53
							c0.525-1.21,1.869-2.012,3.183-1.898c1.314,0.114,2.5,1.135,2.809,2.418"/>
					</g>
					<g>
						<path style="fill:#FFFFFF;" d="M93.106,199.639c1.436-3.417,4.644-6.03,8.281-6.745c3.637-0.715,9.55,0.377,12.225,2.942
							c0.676,0.648,0.733,1.756,0.354,2.612c-0.379,0.856-1.11,1.502-1.867,2.053c-3.275,2.384-9.381,3.752-13.4,3.243
							c-1.956,0.65-4.397-0.359-5.619-2.02C92.57,201.03,92.772,200.434,93.106,199.639z"/>
						<path style="fill:#FFFFFF;" d="M97.98,211.546c-0.655,2.735,0.108,5.667,1.401,8.165c-2.105,0.329-4.623-0.293-6.237-1.684
							c-1.614-1.391-2.69-3.329-3.32-5.365c-0.405-1.308-0.639-2.683-0.538-4.049c0.102-1.383,0.543-2.716,0.98-4.032
							c0.821-2.472,1.715-5.06,3.65-6.803c1.618-1.458,3.802-2.153,5.969-2.378c1.76-0.182,3.604-0.065,5.187,0.728
							c-1.531,2.671-3.208,7.012-6.227,7.616c-0.996,0.199-1.618,0.353-2.151,0.921c-0.487,0.519-1.005,1.335-0.956,2.026
							c0.097,1.374,0.432,2.995,1.445,4.003C97.457,210.969,97.696,211.278,97.98,211.546z"/>
						<path style="fill:#FFFFFF;" d="M91.182,205.361c-0.475,0.751-3.192-1.404-3.74-2.103c-2.407-3.069-2.914-7.587-1.014-10.993
							c1.9-3.406,6.204-5.359,9.959-4.304c3.755,1.055,6.446,5.179,5.668,9.001"/>
					</g>
					<g>
						
							<line style="fill:none;stroke:#5E0E1A;stroke-width:1.332;stroke-linecap:round;stroke-linejoin:round;stroke-miterlimit:10;" x1="111.087" y1="207.327" x2="111.087" y2="207.327"/>
						<path style="fill:none;stroke:#101929;stroke-width:0.8;stroke-linecap:round;stroke-miterlimit:10;" d="M109.214,205.448
							c0.254-0.31,1.873-0.857,2.626-0.619"/>
					</g>
				</g>
			</g>
			<g>
				<path style="fill:#FFFFFF;" d="M106.044,210.296c3.425-0.913,6.877-1.728,10.349-2.443c0.294,1.82,0.853,3.832,0.87,5.675
					c0.011,1.226-0.054,2.508-0.66,3.575c-0.39,0.688-0.979,1.237-1.559,1.775c-0.565,0.524-1.13,1.049-1.695,1.573
					c-0.955,0.886-2.08,1.834-3.377,1.713c-1.544-0.145-2.501-1.7-3.211-3.079c-0.978-1.9-1.955-3.8-2.933-5.7
					c-0.062-0.121-0.127-0.252-0.111-0.387c0.018-0.153,0.132-0.274,0.234-0.389C104.623,211.858,105.999,211.3,106.044,210.296z"/>
				<path style="fill:none;stroke:#FFFFFF;stroke-miterlimit:10;" d="M98.162,202.716c2.54,2.233,6.262,5.505,8.802,7.738"/>
				<path style="fill:none;stroke:#FFFFFF;stroke-miterlimit:10;" d="M96.075,212.199c3.436,0.252,6.876,0.437,10.319,0.554"/>
			</g>
		</g>
		<g>
			<g>
				<path style="fill:#E2567B;" d="M120.533,379.649c2.355-8.407,4.71-16.502,7.066-24.909h17.739
					c-2.749,7.974-4.993,16.841-7.15,24.995"/>
				<path style="fill:#E2567B;" d="M122.125,373.968c0,0-2.966,9.713-4.931,16.324c-0.799,2.689,1.218,5.383,4.023,5.383h22.128
					c0.939-1.284,1.661-5.875,2.6-7.159c-1.534-0.913-3.111-1.757-4.603-2.738c-4.333-2.85-1.808-11.34-1.769-11.336
					C136.082,374.058,122.507,373.103,122.125,373.968z"/>
				<path style="fill:#D32D60;" d="M143.879,359.193c0,0,1.527-4.453,1.46-4.453c0,0-17.697-0.042-17.739,0
					C132.492,357.42,143.879,359.193,143.879,359.193z"/>
			</g>
			<path style="fill:#101929;" d="M115.346,393.966l21.012,0.391c1.156-2.423,4.444-6.195,5.599-8.618
				c2.341,1.341,4.812,2.58,7.317,3.726c3.027,1.385,4.012,5.215,2.083,7.929c-0.255,0.358-0.501,0.704-0.732,1.033
				c-0.778,0-3.311-0.063-4.089-0.063h-32.11L115.346,393.966z"/>
		</g>
		<g>
			<g>
				<path style="fill:#E2567B;" d="M88.915,379.649c2.355-8.407,4.469-16.813,6.344-24.909l17.98-0.001
					c-2.268,7.662-4.513,16.843-6.67,24.996"/>
				<path style="fill:#E2567B;" d="M90.505,373.968c0,0-2.966,9.713-4.93,16.324c-0.799,2.689,1.218,5.383,4.023,5.383h22.128
					c0.939-1.284,1.661-5.875,2.6-7.159c-1.534-0.913-3.111-1.757-4.603-2.738c-4.333-2.85-1.808-11.34-1.769-11.336
					C104.462,374.058,90.887,373.103,90.505,373.968z"/>
				<path style="fill:#D32D60;" d="M111.967,359.193c0,0,1.276-4.453,1.209-4.453c0,0-17.698-0.042-17.739,0
					C100.329,357.42,111.967,359.193,111.967,359.193z"/>
			</g>
			<path style="fill:#0D1A5B;" d="M85.532,394l19.206,0.357c1.156-2.423,4.444-6.195,5.599-8.618
				c2.511,1.439,5.173,2.76,7.866,3.976c2.735,1.234,3.68,4.648,1.947,7.098c-0.401,0.567-0.79,1.111-1.144,1.614
				c-0.778,0-3.311-0.063-4.089-0.063H85.492c-1.385,0-2.419-1.273-2.136-2.629v0C83.571,394.708,84.485,393.98,85.532,394z"/>
		</g>
	</g>
</g>
</svg>
